<svg id="Layer_1" data-name="Layer 1" xmlns="http://www.w3.org/2000/svg" xmlns:xlink="http://www.w3.org/1999/xlink" viewBox="0 0 340 340"><title>how-it-works-mobile</title><image width="2100" height="1500" transform="translate(-44.57 16.74) scale(0.2)" xlink:href="how-it-works.jpg"/><path d="M227.58,21.09V12.5h1.71l2,6.08q0.28,0.85.41,1.27,0.15-.47.46-1.38l2.06-6h1.53v8.59h-1.1V13.9l-2.5,7.19h-1l-2.48-7.31v7.31h-1.1Z"/><path d="M241.74,19.09l1.09,0.13a2.66,2.66,0,0,1-1,1.48,3.24,3.24,0,0,1-3.95-.31,3.29,3.29,0,0,1-.8-2.36,3.44,3.44,0,0,1,.81-2.44,2.74,2.74,0,0,1,2.1-.87,2.66,2.66,0,0,1,2,.85,3.38,3.38,0,0,1,.79,2.39q0,0.09,0,.28h-4.64a2.39,2.39,0,0,0,.58,1.57,1.73,1.73,0,0,0,1.3.54,1.61,1.61,0,0,0,1-.3A2,2,0,0,0,241.74,19.09Zm-3.46-1.71h3.47a2.11,2.11,0,0,0-.4-1.18A1.62,1.62,0,0,0,240,15.6a1.68,1.68,0,0,0-1.22.49A1.92,1.92,0,0,0,238.28,17.38Z"/><path d="M244.15,21.09V14.87h0.94v0.87a2.22,2.22,0,0,1,.78-0.74,2.19,2.19,0,0,1,1.11-.28,2,2,0,0,1,1.13.29,1.54,1.54,0,0,1,.62.8,2.23,2.23,0,0,1,1.92-1.09,1.89,1.89,0,0,1,1.42.51,2.19,2.19,0,0,1,.5,1.58v4.27h-1V17.17a2.89,2.89,0,0,0-.1-0.91,0.88,0.88,0,0,0-.37-0.45,1.16,1.16,0,0,0-.63-0.17,1.47,1.47,0,0,0-1.09.44,1.92,1.92,0,0,0-.43,1.4v3.62h-1.05V17a1.78,1.78,0,0,0-.26-1.05,1,1,0,0,0-.84-0.35,1.53,1.53,0,0,0-.82.23,1.33,1.33,0,0,0-.55.69,3.86,3.86,0,0,0-.17,1.3v3.23h-1.05Z"/><path d="M255.12,21.09h-1V12.5h1.05v3.06a2.09,2.09,0,0,1,1.71-.84A2.61,2.61,0,0,1,258,15a2.22,2.22,0,0,1,.84.65,3.14,3.14,0,0,1,.52,1,4.17,4.17,0,0,1,.19,1.27,3.55,3.55,0,0,1-.79,2.47,2.47,2.47,0,0,1-1.9.87,2,2,0,0,1-1.73-.92v0.78Zm0-3.16a3.23,3.23,0,0,0,.3,1.62,1.51,1.51,0,0,0,2.54.21,2.73,2.73,0,0,0,.5-1.79,2.78,2.78,0,0,0-.48-1.8,1.47,1.47,0,0,0-1.17-.58,1.52,1.52,0,0,0-1.2.6A2.64,2.64,0,0,0,255.11,17.93Z"/><path d="M265.08,19.09l1.09,0.13a2.66,2.66,0,0,1-1,1.48,3.24,3.24,0,0,1-3.95-.31,3.29,3.29,0,0,1-.8-2.36,3.44,3.44,0,0,1,.81-2.44,2.74,2.74,0,0,1,2.1-.87,2.66,2.66,0,0,1,2,.85,3.38,3.38,0,0,1,.79,2.39q0,0.09,0,.28h-4.64a2.39,2.39,0,0,0,.58,1.57,1.73,1.73,0,0,0,1.3.54,1.61,1.61,0,0,0,1-.3A2,2,0,0,0,265.08,19.09Zm-3.46-1.71h3.47a2.11,2.11,0,0,0-.4-1.18,1.62,1.62,0,0,0-1.31-.61,1.68,1.68,0,0,0-1.22.49A1.92,1.92,0,0,0,261.62,17.38Z"/><path d="M267.48,21.09V14.87h0.95v0.94a2.57,2.57,0,0,1,.67-0.87,1.17,1.17,0,0,1,.68-0.21,2.06,2.06,0,0,1,1.08.34l-0.36,1a1.51,1.51,0,0,0-.77-0.23,1,1,0,0,0-.62.21,1.13,1.13,0,0,0-.39.58,4.11,4.11,0,0,0-.18,1.23v3.26h-1.05Z"/><path d="M271.07,19.24l1-.16a1.46,1.46,0,0,0,.49,1,1.71,1.71,0,0,0,1.12.33,1.65,1.65,0,0,0,1.08-.3,0.88,0.88,0,0,0,.35-0.69,0.64,0.64,0,0,0-.31-0.56,4.57,4.57,0,0,0-1.08-.36,9.84,9.84,0,0,1-1.61-.51,1.54,1.54,0,0,1-.91-1.43,1.6,1.6,0,0,1,.19-0.77,1.71,1.71,0,0,1,.52-0.59,2.17,2.17,0,0,1,.67-0.31,3.19,3.19,0,0,1,.91-0.13,3.6,3.6,0,0,1,1.29.21,1.75,1.75,0,0,1,.82.57,2.23,2.23,0,0,1,.36,1l-1,.14a1.13,1.13,0,0,0-.41-0.75,1.49,1.49,0,0,0-1-.27,1.72,1.72,0,0,0-1,.24,0.7,0.7,0,0,0-.31.56,0.58,0.58,0,0,0,.13.37,0.93,0.93,0,0,0,.4.28l0.93,0.27a13,13,0,0,1,1.56.49,1.58,1.58,0,0,1,.69.55,1.55,1.55,0,0,1,.25.9,1.77,1.77,0,0,1-.31,1A2,2,0,0,1,275,21a3.23,3.23,0,0,1-1.31.25,2.92,2.92,0,0,1-1.85-.5A2.34,2.34,0,0,1,271.07,19.24Z"/><path d="M280.83,23.48V14.87h1v0.81a2.37,2.37,0,0,1,.77-0.71,2.11,2.11,0,0,1,1-.24,2.46,2.46,0,0,1,1.41.41,2.52,2.52,0,0,1,.92,1.16,4.23,4.23,0,0,1,.31,1.64,4.16,4.16,0,0,1-.34,1.72,2.58,2.58,0,0,1-1,1.17,2.56,2.56,0,0,1-1.37.41,2,2,0,0,1-.95-0.22,2.15,2.15,0,0,1-.69-0.56v3h-1.05Zm1-5.46a2.71,2.71,0,0,0,.49,1.78,1.49,1.49,0,0,0,1.18.57,1.52,1.52,0,0,0,1.2-.59,2.82,2.82,0,0,0,.5-1.84,2.75,2.75,0,0,0-.49-1.78,1.47,1.47,0,0,0-1.17-.59,1.52,1.52,0,0,0-1.19.63A2.82,2.82,0,0,0,281.78,18Z"/><path d="M291.56,20.33a3.93,3.93,0,0,1-1.13.7,3.26,3.26,0,0,1-1.16.21,2.26,2.26,0,0,1-1.58-.5,1.65,1.65,0,0,1-.55-1.28,1.7,1.7,0,0,1,.21-0.83A1.72,1.72,0,0,1,287.9,18a2.56,2.56,0,0,1,.76-0.35,7.54,7.54,0,0,1,.94-0.16,9.64,9.64,0,0,0,1.88-.36q0-.22,0-0.28a1.16,1.16,0,0,0-.3-0.91,1.77,1.77,0,0,0-1.2-.36,1.86,1.86,0,0,0-1.1.26,1.59,1.59,0,0,0-.52.92l-1-.14a2.56,2.56,0,0,1,.46-1.07,2,2,0,0,1,.93-0.63,4.16,4.16,0,0,1,1.41-.22,3.74,3.74,0,0,1,1.29.19,1.71,1.71,0,0,1,.73.47,1.66,1.66,0,0,1,.33.72,5.94,5.94,0,0,1,.05,1v1.41a14.93,14.93,0,0,0,.07,1.86,2.35,2.35,0,0,0,.27.75h-1.1A2.24,2.24,0,0,1,291.56,20.33ZM291.47,18a7.74,7.74,0,0,1-1.72.4,4,4,0,0,0-.92.21,0.92,0.92,0,0,0-.42.34,0.93,0.93,0,0,0,.17,1.2,1.37,1.37,0,0,0,.93.28,2.18,2.18,0,0,0,1.08-.27,1.64,1.64,0,0,0,.7-0.73,2.55,2.55,0,0,0,.17-1.05V18Z"/><path d="M294.13,23.49l-0.12-1a2.35,2.35,0,0,0,.6.09,1.16,1.16,0,0,0,.56-0.12,1,1,0,0,0,.35-0.33,5.17,5.17,0,0,0,.32-0.79l0.09-.26-2.36-6.23h1.14l1.29,3.6q0.25,0.69.45,1.44a14.19,14.19,0,0,1,.43-1.42l1.33-3.63h1.05l-2.37,6.33a12.42,12.42,0,0,1-.59,1.41,2.08,2.08,0,0,1-.64.76,1.52,1.52,0,0,1-.87.24A2.11,2.11,0,0,1,294.13,23.49Z"/><path d="M307.57,20.33a3.93,3.93,0,0,1-1.13.7,3.26,3.26,0,0,1-1.16.21,2.26,2.26,0,0,1-1.58-.5,1.65,1.65,0,0,1-.55-1.28,1.7,1.7,0,0,1,.21-0.83A1.72,1.72,0,0,1,303.9,18a2.56,2.56,0,0,1,.76-0.35,7.54,7.54,0,0,1,.94-0.16,9.64,9.64,0,0,0,1.88-.36q0-.22,0-0.28a1.16,1.16,0,0,0-.3-0.91,1.76,1.76,0,0,0-1.2-.36,1.86,1.86,0,0,0-1.1.26,1.59,1.59,0,0,0-.52.92l-1-.14a2.56,2.56,0,0,1,.46-1.07,2,2,0,0,1,.93-0.63,4.16,4.16,0,0,1,1.41-.22,3.74,3.74,0,0,1,1.29.19,1.71,1.71,0,0,1,.73.47,1.66,1.66,0,0,1,.33.72,5.94,5.94,0,0,1,.05,1v1.41a14.93,14.93,0,0,0,.07,1.86,2.35,2.35,0,0,0,.27.75h-1.1A2.24,2.24,0,0,1,307.57,20.33ZM307.48,18a7.74,7.74,0,0,1-1.72.4,4,4,0,0,0-.92.21,0.92,0.92,0,0,0-.42.34,0.93,0.93,0,0,0,.17,1.2,1.37,1.37,0,0,0,.93.28,2.18,2.18,0,0,0,1.08-.27,1.64,1.64,0,0,0,.7-0.73,2.55,2.55,0,0,0,.17-1.05V18Z"/><path d="M227.48,35.49V29.27h0.94v0.87a2.22,2.22,0,0,1,.78-0.74,2.19,2.19,0,0,1,1.11-.28,2,2,0,0,1,1.13.29,1.54,1.54,0,0,1,.62.8A2.23,2.23,0,0,1,234,29.13a1.89,1.89,0,0,1,1.42.51,2.19,2.19,0,0,1,.5,1.58v4.27h-1V31.57a2.89,2.89,0,0,0-.1-0.91,0.88,0.88,0,0,0-.37-0.45,1.16,1.16,0,0,0-.63-0.17,1.47,1.47,0,0,0-1.09.44,1.92,1.92,0,0,0-.43,1.4v3.62h-1.05v-4a1.78,1.78,0,0,0-.26-1.05,1,1,0,0,0-.84-0.35,1.53,1.53,0,0,0-.82.23,1.33,1.33,0,0,0-.55.69,3.86,3.86,0,0,0-.17,1.3v3.23h-1.05Z"/><path d="M237.09,32.38a3.21,3.21,0,0,1,1-2.56,2.9,2.9,0,0,1,2-.69,2.79,2.79,0,0,1,2.1.84,3.2,3.2,0,0,1,.81,2.32,4.12,4.12,0,0,1-.36,1.89,2.55,2.55,0,0,1-1,1.07,3.05,3.05,0,0,1-1.5.38,2.8,2.8,0,0,1-2.11-.84A3.35,3.35,0,0,1,237.09,32.38Zm1.08,0a2.65,2.65,0,0,0,.52,1.79,1.74,1.74,0,0,0,2.62,0,2.71,2.71,0,0,0,.52-1.82,2.57,2.57,0,0,0-.52-1.75,1.74,1.74,0,0,0-2.62,0A2.64,2.64,0,0,0,238.17,32.38Z"/><path d="M244.15,35.49V29.27h0.95v0.88a2.24,2.24,0,0,1,2-1,2.6,2.6,0,0,1,1,.2,1.63,1.63,0,0,1,.71.53,2,2,0,0,1,.33.78,6,6,0,0,1,.06,1v3.83h-1.05V31.71a2.84,2.84,0,0,0-.12-1,1,1,0,0,0-.44-0.51,1.39,1.39,0,0,0-.74-0.19,1.71,1.71,0,0,0-1.16.43,2.11,2.11,0,0,0-.49,1.62v3.4h-1.05Z"/><path d="M253.13,34.55l0.15,0.93a3.91,3.91,0,0,1-.8.09,1.8,1.8,0,0,1-.89-0.18,1,1,0,0,1-.45-0.48,3.78,3.78,0,0,1-.13-1.25V30.09h-0.77V29.27H251V27.73l1-.63v2.17h1.06v0.82h-1.06v3.64a1.84,1.84,0,0,0,.06.58,0.44,0.44,0,0,0,.18.21,0.7,0.7,0,0,0,.36.08A3.43,3.43,0,0,0,253.13,34.55Z"/><path d="M254.16,35.49V26.9h1.05V30a2.36,2.36,0,0,1,1.86-.86,2.51,2.51,0,0,1,1.2.27,1.6,1.6,0,0,1,.73.75,3.47,3.47,0,0,1,.22,1.39v3.94h-1.05V31.55a1.63,1.63,0,0,0-.34-1.15,1.27,1.27,0,0,0-1-.36,1.71,1.71,0,0,0-.88.24,1.37,1.37,0,0,0-.59.66,3,3,0,0,0-.18,1.15v3.4h-1.05Z"/><path d="M260.81,35.49V26.9h1.05v8.59h-1.05Z"/><path d="M263.45,37.89l-0.12-1a2.35,2.35,0,0,0,.6.09,1.16,1.16,0,0,0,.56-0.12,1,1,0,0,0,.35-0.33,5.17,5.17,0,0,0,.32-0.79l0.09-.26-2.36-6.23H264l1.29,3.6q0.25,0.69.45,1.44a14.19,14.19,0,0,1,.43-1.42l1.33-3.63h1.05l-2.37,6.33a12.42,12.42,0,0,1-.59,1.41,2.08,2.08,0,0,1-.64.76,1.52,1.52,0,0,1-.87.24A2.11,2.11,0,0,1,263.45,37.89Z"/><path d="M272.41,33.64l1-.16a1.46,1.46,0,0,0,.49,1,1.71,1.71,0,0,0,1.12.33,1.65,1.65,0,0,0,1.08-.3,0.88,0.88,0,0,0,.35-0.69,0.64,0.64,0,0,0-.31-0.56,4.57,4.57,0,0,0-1.08-.36,9.84,9.84,0,0,1-1.61-.51,1.54,1.54,0,0,1-.91-1.43,1.6,1.6,0,0,1,.19-0.77,1.71,1.71,0,0,1,.52-0.59,2.17,2.17,0,0,1,.67-0.31,3.19,3.19,0,0,1,.91-0.13,3.6,3.6,0,0,1,1.29.21,1.75,1.75,0,0,1,.82.57,2.23,2.23,0,0,1,.36,1l-1,.14a1.13,1.13,0,0,0-.41-0.75,1.49,1.49,0,0,0-1-.27,1.72,1.72,0,0,0-1,.24,0.7,0.7,0,0,0-.31.56,0.58,0.58,0,0,0,.13.37,0.93,0.93,0,0,0,.4.28l0.93,0.27a13,13,0,0,1,1.56.49,1.58,1.58,0,0,1,.69.55,1.55,1.55,0,0,1,.25.9,1.77,1.77,0,0,1-.31,1,2,2,0,0,1-.89.72,3.23,3.23,0,0,1-1.31.25,2.92,2.92,0,0,1-1.85-.5A2.34,2.34,0,0,1,272.41,33.64Z"/><path d="M282.91,35.49V34.58a2.28,2.28,0,0,1-2,1.05,2.52,2.52,0,0,1-1-.21,1.69,1.69,0,0,1-.71-0.53,2,2,0,0,1-.33-0.78,5.36,5.36,0,0,1-.06-1V29.27h1.05v3.45a6.15,6.15,0,0,0,.06,1.11,1.1,1.1,0,0,0,.42.65,1.31,1.31,0,0,0,.8.24,1.74,1.74,0,0,0,.89-0.24,1.35,1.35,0,0,0,.59-0.66,3.32,3.32,0,0,0,.17-1.22V29.27h1.05v6.22h-0.94Z"/><path d="M286.48,35.49h-1V26.9h1.05V30a2.09,2.09,0,0,1,1.71-.84,2.61,2.61,0,0,1,1.09.23,2.22,2.22,0,0,1,.84.65,3.14,3.14,0,0,1,.52,1,4.17,4.17,0,0,1,.19,1.27,3.55,3.55,0,0,1-.79,2.47,2.47,2.47,0,0,1-1.9.87,2,2,0,0,1-1.73-.92v0.78Zm0-3.16a3.23,3.23,0,0,0,.3,1.62,1.51,1.51,0,0,0,2.54.21,2.73,2.73,0,0,0,.5-1.79,2.78,2.78,0,0,0-.48-1.8,1.47,1.47,0,0,0-1.17-.58,1.52,1.52,0,0,0-1.2.6A2.64,2.64,0,0,0,286.47,32.33Z"/><path d="M291.76,33.64l1-.16a1.46,1.46,0,0,0,.49,1,1.71,1.71,0,0,0,1.12.33,1.65,1.65,0,0,0,1.08-.3,0.88,0.88,0,0,0,.35-0.69,0.64,0.64,0,0,0-.31-0.56,4.57,4.57,0,0,0-1.08-.36,9.84,9.84,0,0,1-1.61-.51,1.54,1.54,0,0,1-.91-1.43,1.6,1.6,0,0,1,.19-0.77,1.71,1.71,0,0,1,.52-0.59,2.17,2.17,0,0,1,.67-0.31,3.19,3.19,0,0,1,.91-0.13,3.6,3.6,0,0,1,1.29.21,1.75,1.75,0,0,1,.82.57,2.23,2.23,0,0,1,.36,1l-1,.14a1.13,1.13,0,0,0-.41-0.75,1.49,1.49,0,0,0-1-.27,1.72,1.72,0,0,0-1,.24,0.7,0.7,0,0,0-.31.56,0.58,0.58,0,0,0,.13.37,0.93,0.93,0,0,0,.4.28l0.93,0.27a13,13,0,0,1,1.56.49,1.58,1.58,0,0,1,.69.55,1.55,1.55,0,0,1,.25.9,1.77,1.77,0,0,1-.31,1,2,2,0,0,1-.89.72,3.23,3.23,0,0,1-1.31.25,2.92,2.92,0,0,1-1.85-.5A2.34,2.34,0,0,1,291.76,33.64Z"/><path d="M302.24,33.21l1,0.13a2.69,2.69,0,0,1-.87,1.68,2.53,2.53,0,0,1-1.72.61,2.67,2.67,0,0,1-2.05-.83,3.39,3.39,0,0,1-.78-2.39,4.33,4.33,0,0,1,.33-1.76,2.33,2.33,0,0,1,1-1.13,3,3,0,0,1,1.49-.38,2.58,2.58,0,0,1,1.66.51,2.35,2.35,0,0,1,.83,1.46l-1,.16a1.7,1.7,0,0,0-.52-0.94,1.34,1.34,0,0,0-.9-0.32,1.64,1.64,0,0,0-1.29.57,2.71,2.71,0,0,0-.5,1.81,2.8,2.8,0,0,0,.48,1.82,1.56,1.56,0,0,0,1.25.57,1.48,1.48,0,0,0,1-.38A1.89,1.89,0,0,0,302.24,33.21Z"/><path d="M304.17,35.49V29.27h0.95v0.94a2.57,2.57,0,0,1,.67-0.87,1.17,1.17,0,0,1,.68-0.21,2.06,2.06,0,0,1,1.08.34l-0.36,1a1.51,1.51,0,0,0-.77-0.23,1,1,0,0,0-.62.21,1.13,1.13,0,0,0-.39.58,4.11,4.11,0,0,0-.18,1.23v3.26h-1.05Z"/><path d="M308.18,28.12V26.9h1.05v1.21h-1.05Zm0,7.38V29.27h1.05v6.22h-1.05Z"/><path d="M310.84,37.88V29.27h1v0.81a2.37,2.37,0,0,1,.77-0.71,2.11,2.11,0,0,1,1-.24,2.46,2.46,0,0,1,1.41.41,2.52,2.52,0,0,1,.92,1.16,4.23,4.23,0,0,1,.31,1.64,4.16,4.16,0,0,1-.34,1.72,2.58,2.58,0,0,1-1,1.17,2.56,2.56,0,0,1-1.37.41,2,2,0,0,1-.95-0.22,2.15,2.15,0,0,1-.69-0.56v3h-1.05Zm1-5.46a2.71,2.71,0,0,0,.49,1.78,1.49,1.49,0,0,0,1.18.57,1.52,1.52,0,0,0,1.2-.59,2.82,2.82,0,0,0,.5-1.84,2.75,2.75,0,0,0-.49-1.78,1.47,1.47,0,0,0-1.17-.59,1.52,1.52,0,0,0-1.19.63A2.82,2.82,0,0,0,311.8,32.42Z"/><path d="M319.82,34.55L320,35.48a3.91,3.91,0,0,1-.8.09,1.8,1.8,0,0,1-.89-0.18,1,1,0,0,1-.45-0.48,3.78,3.78,0,0,1-.13-1.25V30.09h-0.77V29.27h0.77V27.73l1-.63v2.17h1.06v0.82h-1.06v3.64a1.84,1.84,0,0,0,.06.58,0.44,0.44,0,0,0,.18.21,0.7,0.7,0,0,0,.36.08A3.43,3.43,0,0,0,319.82,34.55Z"/><path d="M320.86,28.12V26.9h1.05v1.21h-1.05Zm0,7.38V29.27h1.05v6.22h-1.05Z"/><path d="M323.13,32.38a3.21,3.21,0,0,1,1-2.56,2.9,2.9,0,0,1,2-.69,2.79,2.79,0,0,1,2.1.84,3.2,3.2,0,0,1,.81,2.32,4.12,4.12,0,0,1-.36,1.89,2.55,2.55,0,0,1-1,1.07,3.05,3.05,0,0,1-1.5.38,2.8,2.8,0,0,1-2.11-.84A3.35,3.35,0,0,1,323.13,32.38Zm1.08,0a2.65,2.65,0,0,0,.52,1.79,1.74,1.74,0,0,0,2.62,0,2.71,2.71,0,0,0,.52-1.82,2.57,2.57,0,0,0-.52-1.75,1.74,1.74,0,0,0-2.62,0A2.64,2.64,0,0,0,324.21,32.38Z"/><path d="M330.19,35.49V29.27h0.95v0.88a2.24,2.24,0,0,1,2-1,2.6,2.6,0,0,1,1,.2,1.63,1.63,0,0,1,.71.53,2,2,0,0,1,.33.78,6,6,0,0,1,.06,1v3.83h-1.05V31.71a2.84,2.84,0,0,0-.12-1,1,1,0,0,0-.44-0.51A1.39,1.39,0,0,0,332.9,30a1.71,1.71,0,0,0-1.16.43,2.11,2.11,0,0,0-.49,1.62v3.4h-1.05Z"/><path d="M227.49,42.52V41.3h1.05v1.21h-1.05Zm0,7.38V43.67h1.05v6.22h-1.05Z"/><path d="M230.15,49.89V43.67h0.95v0.88a2.24,2.24,0,0,1,2-1,2.6,2.6,0,0,1,1,.2,1.63,1.63,0,0,1,.71.53,2,2,0,0,1,.33.78,6,6,0,0,1,.06,1v3.83h-1.05V46.11a2.84,2.84,0,0,0-.12-1,1,1,0,0,0-.44-0.51,1.39,1.39,0,0,0-.74-0.19,1.71,1.71,0,0,0-1.16.43,2.11,2.11,0,0,0-.49,1.62v3.4h-1.05Z"/><path d="M239.13,49l0.15,0.93a3.91,3.91,0,0,1-.8.09,1.8,1.8,0,0,1-.89-0.18,1,1,0,0,1-.45-0.48,3.78,3.78,0,0,1-.13-1.25V44.49h-0.77V43.67H237V42.13l1-.63v2.17h1.06v0.82h-1.06v3.64a1.84,1.84,0,0,0,.06.58,0.44,0.44,0,0,0,.18.21,0.7,0.7,0,0,0,.36.08A3.43,3.43,0,0,0,239.13,49Z"/><path d="M239.76,46.78a3.21,3.21,0,0,1,1-2.56,2.9,2.9,0,0,1,2-.69,2.79,2.79,0,0,1,2.1.84,3.2,3.2,0,0,1,.81,2.32,4.12,4.12,0,0,1-.36,1.89,2.55,2.55,0,0,1-1,1.07,3.05,3.05,0,0,1-1.5.38,2.8,2.8,0,0,1-2.11-.84A3.35,3.35,0,0,1,239.76,46.78Zm1.08,0a2.65,2.65,0,0,0,.52,1.79,1.74,1.74,0,0,0,2.62,0,2.71,2.71,0,0,0,.52-1.82A2.57,2.57,0,0,0,244,45a1.74,1.74,0,0,0-2.62,0A2.64,2.64,0,0,0,240.85,46.78Z"/><path d="M256.43,46.88l1.14,0.29a3.83,3.83,0,0,1-1.29,2.14A3.54,3.54,0,0,1,254,50a4.08,4.08,0,0,1-2.26-.57,3.53,3.53,0,0,1-1.32-1.64,5.84,5.84,0,0,1-.45-2.3,5.06,5.06,0,0,1,.51-2.34,3.51,3.51,0,0,1,1.46-1.52,4.26,4.26,0,0,1,2.08-.52,3.52,3.52,0,0,1,2.17.66,3.41,3.41,0,0,1,1.22,1.85l-1.12.26a2.65,2.65,0,0,0-.87-1.37,2.31,2.31,0,0,0-1.43-.43,2.78,2.78,0,0,0-1.66.47,2.51,2.51,0,0,0-.93,1.27,5.13,5.13,0,0,0-.27,1.65,5.24,5.24,0,0,0,.32,1.91,2.38,2.38,0,0,0,1,1.22,2.79,2.79,0,0,0,1.46.4,2.44,2.44,0,0,0,1.62-.55A2.82,2.82,0,0,0,256.43,46.88Z"/><path d="M258.44,46.78a3.21,3.21,0,0,1,1-2.56,2.9,2.9,0,0,1,2-.69,2.79,2.79,0,0,1,2.1.84,3.2,3.2,0,0,1,.81,2.32,4.12,4.12,0,0,1-.36,1.89,2.55,2.55,0,0,1-1,1.07,3.05,3.05,0,0,1-1.5.38,2.8,2.8,0,0,1-2.11-.84A3.35,3.35,0,0,1,258.44,46.78Zm1.08,0a2.65,2.65,0,0,0,.52,1.79,1.74,1.74,0,0,0,2.62,0,2.71,2.71,0,0,0,.52-1.82,2.57,2.57,0,0,0-.52-1.75A1.74,1.74,0,0,0,260,45,2.64,2.64,0,0,0,259.52,46.78Z"/><path d="M265.11,46.78a3.21,3.21,0,0,1,1-2.56,2.9,2.9,0,0,1,2-.69,2.79,2.79,0,0,1,2.1.84,3.2,3.2,0,0,1,.81,2.32,4.12,4.12,0,0,1-.36,1.89,2.55,2.55,0,0,1-1,1.07A3.05,3.05,0,0,1,268,50a2.8,2.8,0,0,1-2.11-.84A3.35,3.35,0,0,1,265.11,46.78Zm1.08,0a2.65,2.65,0,0,0,.52,1.79,1.74,1.74,0,0,0,2.62,0,2.71,2.71,0,0,0,.52-1.82,2.57,2.57,0,0,0-.52-1.75,1.74,1.74,0,0,0-2.62,0A2.64,2.64,0,0,0,266.2,46.78Z"/><path d="M272.18,52.28V43.67h1v0.81a2.37,2.37,0,0,1,.77-0.71,2.11,2.11,0,0,1,1-.24,2.46,2.46,0,0,1,1.41.41,2.52,2.52,0,0,1,.92,1.16,4.23,4.23,0,0,1,.31,1.64,4.16,4.16,0,0,1-.34,1.72,2.58,2.58,0,0,1-1,1.17,2.56,2.56,0,0,1-1.37.41,2,2,0,0,1-.95-0.22,2.15,2.15,0,0,1-.69-0.56v3h-1.05Zm1-5.46a2.71,2.71,0,0,0,.49,1.78,1.49,1.49,0,0,0,1.18.57,1.52,1.52,0,0,0,1.2-.59,2.82,2.82,0,0,0,.5-1.84,2.75,2.75,0,0,0-.49-1.78,1.47,1.47,0,0,0-1.17-.59,1.52,1.52,0,0,0-1.19.63A2.82,2.82,0,0,0,273.13,46.82Z"/><path d="M282.38,49.89V41.3h5.79v1h-4.66V45h4v1h-4v3.9h-1.14Z"/><path d="M293.59,49.89V49a2.28,2.28,0,0,1-2,1.05,2.52,2.52,0,0,1-1-.21,1.69,1.69,0,0,1-.71-0.53,2,2,0,0,1-.33-0.78,5.36,5.36,0,0,1-.06-1V43.67h1.05v3.45a6.15,6.15,0,0,0,.06,1.11,1.1,1.1,0,0,0,.42.65,1.31,1.31,0,0,0,.8.24,1.74,1.74,0,0,0,.89-0.24,1.35,1.35,0,0,0,.59-0.66,3.32,3.32,0,0,0,.17-1.22V43.67h1.05v6.22h-0.94Z"/><path d="M296.19,49.89V43.67h0.95v0.88a2.24,2.24,0,0,1,2-1,2.6,2.6,0,0,1,1,.2,1.63,1.63,0,0,1,.71.53,2,2,0,0,1,.33.78,6,6,0,0,1,.06,1v3.83h-1.05V46.11a2.84,2.84,0,0,0-.12-1,1,1,0,0,0-.44-0.51,1.39,1.39,0,0,0-.74-0.19,1.71,1.71,0,0,0-1.16.43,2.11,2.11,0,0,0-.49,1.62v3.4h-1.05Z"/><path d="M306.9,49.89V49.11a1.94,1.94,0,0,1-1.74.93,2.44,2.44,0,0,1-1.37-.41,2.7,2.7,0,0,1-1-1.15,4,4,0,0,1-.34-1.69,4.42,4.42,0,0,1,.31-1.69,2.45,2.45,0,0,1,.93-1.16,2.49,2.49,0,0,1,1.39-.4,2.08,2.08,0,0,1,1.72.86V41.3h1v8.59h-1Zm-3.33-3.11a2.7,2.7,0,0,0,.5,1.79,1.52,1.52,0,0,0,1.19.59,1.49,1.49,0,0,0,1.17-.57,2.61,2.61,0,0,0,.48-1.73,2.93,2.93,0,0,0-.49-1.87,1.51,1.51,0,0,0-1.21-.6A1.46,1.46,0,0,0,304,45,2.83,2.83,0,0,0,303.57,46.79Z"/><path d="M180.76,128v-8.59h1.71l2,6.08q0.28,0.85.41,1.27,0.15-.47.46-1.38l2.06-6H189V128h-1.1v-7.19l-2.5,7.19h-1l-2.48-7.31V128h-1.1Z"/><path d="M194.92,126l1.09,0.13a2.66,2.66,0,0,1-1,1.48,3.24,3.24,0,0,1-3.95-.31,3.29,3.29,0,0,1-.8-2.36,3.44,3.44,0,0,1,.81-2.44,2.74,2.74,0,0,1,2.1-.87,2.66,2.66,0,0,1,2,.85,3.38,3.38,0,0,1,.79,2.39q0,0.09,0,.28h-4.64a2.39,2.39,0,0,0,.58,1.57,1.73,1.73,0,0,0,1.3.54,1.61,1.61,0,0,0,1-.3A2,2,0,0,0,194.92,126Zm-3.46-1.71h3.47a2.11,2.11,0,0,0-.4-1.18,1.62,1.62,0,0,0-1.31-.61A1.68,1.68,0,0,0,192,123,1.92,1.92,0,0,0,191.45,124.3Z"/><path d="M197.33,128v-6.22h0.94v0.87a2.22,2.22,0,0,1,.78-0.74,2.19,2.19,0,0,1,1.11-.28,2,2,0,0,1,1.13.29,1.54,1.54,0,0,1,.62.8,2.23,2.23,0,0,1,1.92-1.09,1.89,1.89,0,0,1,1.42.51,2.19,2.19,0,0,1,.5,1.58V128h-1v-3.92a2.89,2.89,0,0,0-.1-0.91,0.88,0.88,0,0,0-.37-0.45,1.16,1.16,0,0,0-.63-0.17,1.47,1.47,0,0,0-1.09.44,1.92,1.92,0,0,0-.43,1.4V128H201v-4a1.78,1.78,0,0,0-.26-1.05,1,1,0,0,0-.84-0.35,1.53,1.53,0,0,0-.82.23,1.33,1.33,0,0,0-.55.69,3.86,3.86,0,0,0-.17,1.3V128h-1.05Z"/><path d="M208.3,128h-1v-8.59h1.05v3.06a2.09,2.09,0,0,1,1.71-.84,2.61,2.61,0,0,1,1.09.23,2.22,2.22,0,0,1,.84.65,3.14,3.14,0,0,1,.52,1,4.17,4.17,0,0,1,.19,1.27,3.55,3.55,0,0,1-.79,2.47,2.47,2.47,0,0,1-1.9.87,2,2,0,0,1-1.73-.92V128Zm0-3.16a3.23,3.23,0,0,0,.3,1.62,1.51,1.51,0,0,0,2.54.21,2.73,2.73,0,0,0,.5-1.79,2.78,2.78,0,0,0-.48-1.8,1.47,1.47,0,0,0-1.17-.58,1.52,1.52,0,0,0-1.2.6A2.64,2.64,0,0,0,208.29,124.85Z"/><path d="M218.26,126l1.09,0.13a2.66,2.66,0,0,1-1,1.48,3.24,3.24,0,0,1-3.95-.31,3.29,3.29,0,0,1-.8-2.36,3.44,3.44,0,0,1,.81-2.44,2.74,2.74,0,0,1,2.1-.87,2.66,2.66,0,0,1,2,.85,3.38,3.38,0,0,1,.79,2.39q0,0.09,0,.28h-4.64a2.39,2.39,0,0,0,.58,1.57,1.73,1.73,0,0,0,1.3.54,1.61,1.61,0,0,0,1-.3A2,2,0,0,0,218.26,126Zm-3.46-1.71h3.47a2.11,2.11,0,0,0-.4-1.18,1.62,1.62,0,0,0-1.31-.61,1.68,1.68,0,0,0-1.22.49A1.92,1.92,0,0,0,214.8,124.3Z"/><path d="M220.66,128v-6.22h0.95v0.94a2.57,2.57,0,0,1,.67-0.87,1.17,1.17,0,0,1,.68-0.21A2.06,2.06,0,0,1,224,122l-0.36,1a1.51,1.51,0,0,0-.77-0.23,1,1,0,0,0-.62.21,1.13,1.13,0,0,0-.39.58,4.11,4.11,0,0,0-.18,1.23V128h-1.05Z"/><path d="M224.25,126.15l1-.16a1.46,1.46,0,0,0,.49,1,1.71,1.71,0,0,0,1.12.33A1.65,1.65,0,0,0,228,127a0.88,0.88,0,0,0,.35-0.69,0.64,0.64,0,0,0-.31-0.56,4.57,4.57,0,0,0-1.08-.36,9.84,9.84,0,0,1-1.61-.51,1.54,1.54,0,0,1-.91-1.43,1.6,1.6,0,0,1,.19-0.77,1.71,1.71,0,0,1,.52-0.59,2.17,2.17,0,0,1,.67-0.31,3.19,3.19,0,0,1,.91-0.13,3.6,3.6,0,0,1,1.29.21,1.75,1.75,0,0,1,.82.57,2.23,2.23,0,0,1,.36,1l-1,.14a1.13,1.13,0,0,0-.41-0.75,1.49,1.49,0,0,0-1-.27,1.72,1.72,0,0,0-1,.24,0.7,0.7,0,0,0-.31.56,0.58,0.58,0,0,0,.13.37,0.93,0.93,0,0,0,.4.28l0.93,0.27a13,13,0,0,1,1.56.49,1.58,1.58,0,0,1,.69.55,1.55,1.55,0,0,1,.25.9,1.77,1.77,0,0,1-.31,1,2,2,0,0,1-.89.72,3.23,3.23,0,0,1-1.31.25,2.92,2.92,0,0,1-1.85-.5A2.34,2.34,0,0,1,224.25,126.15Z"/><path d="M180.66,142.41v-8.59h1.05v3.08a2.36,2.36,0,0,1,1.86-.86,2.51,2.51,0,0,1,1.2.27,1.6,1.6,0,0,1,.73.75,3.47,3.47,0,0,1,.22,1.39v3.94h-1.05v-3.94a1.63,1.63,0,0,0-.34-1.15,1.27,1.27,0,0,0-1-.36,1.71,1.71,0,0,0-.88.24,1.37,1.37,0,0,0-.59.66,3,3,0,0,0-.18,1.15v3.4h-1.05Z"/><path d="M191.39,141.64a3.93,3.93,0,0,1-1.13.7,3.26,3.26,0,0,1-1.16.21,2.26,2.26,0,0,1-1.58-.5,1.65,1.65,0,0,1-.55-1.28,1.7,1.7,0,0,1,.21-0.83,1.72,1.72,0,0,1,.54-0.61,2.56,2.56,0,0,1,.76-0.35,7.54,7.54,0,0,1,.94-0.16,9.64,9.64,0,0,0,1.88-.36q0-.22,0-0.28a1.16,1.16,0,0,0-.3-0.91,1.77,1.77,0,0,0-1.2-.36,1.86,1.86,0,0,0-1.1.26,1.59,1.59,0,0,0-.52.92l-1-.14a2.55,2.55,0,0,1,.46-1.07,2,2,0,0,1,.93-0.63A4.16,4.16,0,0,1,190,136a3.74,3.74,0,0,1,1.29.19,1.71,1.71,0,0,1,.73.47,1.66,1.66,0,0,1,.33.72,5.94,5.94,0,0,1,.05,1v1.41a14.93,14.93,0,0,0,.07,1.86,2.35,2.35,0,0,0,.27.75h-1.1A2.24,2.24,0,0,1,191.39,141.64Zm-0.09-2.36a7.74,7.74,0,0,1-1.72.4,4,4,0,0,0-.92.21,0.92,0.92,0,0,0-.42.34,0.93,0.93,0,0,0,.17,1.2,1.37,1.37,0,0,0,.93.28,2.18,2.18,0,0,0,1.08-.27,1.64,1.64,0,0,0,.7-0.73,2.55,2.55,0,0,0,.17-1.05v-0.39Z"/><path d="M195.74,142.41l-2.37-6.22h1.11l1.34,3.73q0.22,0.6.4,1.25,0.14-.49.39-1.18l1.38-3.8h1.08l-2.36,6.22h-1Z"/><path d="M204.27,140.41l1.09,0.13a2.66,2.66,0,0,1-1,1.48,3.24,3.24,0,0,1-3.95-.31,3.29,3.29,0,0,1-.8-2.36,3.44,3.44,0,0,1,.81-2.44,2.74,2.74,0,0,1,2.1-.87,2.66,2.66,0,0,1,2,.85,3.38,3.38,0,0,1,.79,2.39q0,0.09,0,.28h-4.64a2.39,2.39,0,0,0,.58,1.57,1.73,1.73,0,0,0,1.3.54,1.61,1.61,0,0,0,1-.3A2,2,0,0,0,204.27,140.41Zm-3.46-1.71h3.47a2.11,2.11,0,0,0-.4-1.18,1.62,1.62,0,0,0-1.31-.61,1.68,1.68,0,0,0-1.22.49A1.92,1.92,0,0,0,200.8,138.7Z"/><path d="M184.7,156.81V156A1.94,1.94,0,0,1,183,157a2.44,2.44,0,0,1-1.37-.41,2.7,2.7,0,0,1-1-1.15,4,4,0,0,1-.34-1.69,4.42,4.42,0,0,1,.31-1.69,2.45,2.45,0,0,1,.93-1.16,2.49,2.49,0,0,1,1.39-.4,2.08,2.08,0,0,1,1.72.86v-3.08h1v8.59h-1Zm-3.33-3.11a2.7,2.7,0,0,0,.5,1.79,1.52,1.52,0,0,0,1.19.59,1.49,1.49,0,0,0,1.17-.57,2.61,2.61,0,0,0,.48-1.73,2.93,2.93,0,0,0-.49-1.87,1.51,1.51,0,0,0-1.21-.6,1.46,1.46,0,0,0-1.17.57A2.83,2.83,0,0,0,181.36,153.71Z"/><path d="M187.34,149.43v-1.21h1.05v1.21h-1.05Zm0,7.38v-6.22h1.05v6.22h-1.05Z"/><path d="M189.58,155l1-.16a1.46,1.46,0,0,0,.49,1,1.71,1.71,0,0,0,1.12.33,1.65,1.65,0,0,0,1.08-.3,0.88,0.88,0,0,0,.35-0.69,0.64,0.64,0,0,0-.31-0.56,4.57,4.57,0,0,0-1.08-.36,9.84,9.84,0,0,1-1.61-.51,1.54,1.54,0,0,1-.91-1.43,1.6,1.6,0,0,1,.19-0.77,1.71,1.71,0,0,1,.52-0.59,2.17,2.17,0,0,1,.67-0.31,3.19,3.19,0,0,1,.91-0.13,3.6,3.6,0,0,1,1.29.21,1.75,1.75,0,0,1,.82.57,2.23,2.23,0,0,1,.36,1l-1,.14a1.13,1.13,0,0,0-.41-0.75,1.49,1.49,0,0,0-1-.27,1.72,1.72,0,0,0-1,.24,0.7,0.7,0,0,0-.31.56,0.58,0.58,0,0,0,.13.37,0.93,0.93,0,0,0,.4.28l0.93,0.27a13,13,0,0,1,1.56.49,1.58,1.58,0,0,1,.69.55,1.55,1.55,0,0,1,.25.9,1.77,1.77,0,0,1-.31,1,2,2,0,0,1-.89.72,3.23,3.23,0,0,1-1.31.25,2.92,2.92,0,0,1-1.85-.5A2.34,2.34,0,0,1,189.58,155Z"/><path d="M200.06,154.53l1,0.13a2.69,2.69,0,0,1-.87,1.68,2.53,2.53,0,0,1-1.72.61,2.67,2.67,0,0,1-2.05-.83,3.39,3.39,0,0,1-.78-2.39A4.33,4.33,0,0,1,196,152a2.33,2.33,0,0,1,1-1.13,3,3,0,0,1,1.49-.38,2.58,2.58,0,0,1,1.66.51,2.35,2.35,0,0,1,.83,1.46l-1,.16a1.7,1.7,0,0,0-.52-0.94,1.34,1.34,0,0,0-.9-0.32,1.64,1.64,0,0,0-1.29.57,2.71,2.71,0,0,0-.5,1.81,2.8,2.8,0,0,0,.48,1.82,1.56,1.56,0,0,0,1.25.57,1.48,1.48,0,0,0,1-.38A1.89,1.89,0,0,0,200.06,154.53Z"/><path d="M206.08,156.81V155.9a2.28,2.28,0,0,1-2,1.05,2.52,2.52,0,0,1-1-.21,1.69,1.69,0,0,1-.71-0.53,2,2,0,0,1-.33-0.78,5.36,5.36,0,0,1-.06-1v-3.86H203V154a6.15,6.15,0,0,0,.06,1.11,1.1,1.1,0,0,0,.42.65,1.31,1.31,0,0,0,.8.24,1.74,1.74,0,0,0,.89-0.24,1.35,1.35,0,0,0,.59-0.66,3.32,3.32,0,0,0,.17-1.22v-3.33H207v6.22h-0.94Z"/><path d="M208.25,155l1-.16a1.46,1.46,0,0,0,.49,1,1.71,1.71,0,0,0,1.12.33,1.65,1.65,0,0,0,1.08-.3,0.88,0.88,0,0,0,.35-0.69,0.64,0.64,0,0,0-.31-0.56,4.57,4.57,0,0,0-1.08-.36,9.84,9.84,0,0,1-1.61-.51,1.54,1.54,0,0,1-.91-1.43,1.6,1.6,0,0,1,.19-0.77,1.71,1.71,0,0,1,.52-0.59,2.17,2.17,0,0,1,.67-0.31,3.19,3.19,0,0,1,.91-0.13,3.6,3.6,0,0,1,1.29.21,1.75,1.75,0,0,1,.82.57,2.23,2.23,0,0,1,.36,1l-1,.14a1.13,1.13,0,0,0-.41-0.75,1.49,1.49,0,0,0-1-.27,1.72,1.72,0,0,0-1,.24,0.7,0.7,0,0,0-.31.56,0.58,0.58,0,0,0,.13.37,0.93,0.93,0,0,0,.4.28l0.93,0.27a13,13,0,0,1,1.56.49,1.58,1.58,0,0,1,.69.55,1.55,1.55,0,0,1,.25.9,1.77,1.77,0,0,1-.31,1,2,2,0,0,1-.89.72,3.23,3.23,0,0,1-1.31.25,2.92,2.92,0,0,1-1.85-.5A2.34,2.34,0,0,1,208.25,155Z"/><path d="M214.25,155l1-.16a1.46,1.46,0,0,0,.49,1,1.71,1.71,0,0,0,1.12.33,1.65,1.65,0,0,0,1.08-.3,0.88,0.88,0,0,0,.35-0.69,0.64,0.64,0,0,0-.31-0.56,4.57,4.57,0,0,0-1.08-.36,9.84,9.84,0,0,1-1.61-.51,1.54,1.54,0,0,1-.91-1.43,1.6,1.6,0,0,1,.19-0.77,1.71,1.71,0,0,1,.52-0.59,2.17,2.17,0,0,1,.67-0.31,3.19,3.19,0,0,1,.91-0.13,3.6,3.6,0,0,1,1.29.21,1.75,1.75,0,0,1,.82.57,2.23,2.23,0,0,1,.36,1l-1,.14a1.13,1.13,0,0,0-.41-0.75,1.49,1.49,0,0,0-1-.27,1.72,1.72,0,0,0-1,.24,0.7,0.7,0,0,0-.31.56,0.58,0.58,0,0,0,.13.37,0.93,0.93,0,0,0,.4.28l0.93,0.27a13,13,0,0,1,1.56.49,1.58,1.58,0,0,1,.69.55,1.55,1.55,0,0,1,.25.9,1.77,1.77,0,0,1-.31,1,2,2,0,0,1-.89.72,3.23,3.23,0,0,1-1.31.25,2.92,2.92,0,0,1-1.85-.5A2.34,2.34,0,0,1,214.25,155Z"/><path d="M220.68,149.43v-1.21h1.05v1.21h-1.05Zm0,7.38v-6.22h1.05v6.22h-1.05Z"/><path d="M222.95,153.7a3.21,3.21,0,0,1,1-2.56,2.9,2.9,0,0,1,2-.69,2.79,2.79,0,0,1,2.1.84,3.2,3.2,0,0,1,.81,2.32,4.12,4.12,0,0,1-.36,1.89,2.55,2.55,0,0,1-1,1.07,3.05,3.05,0,0,1-1.5.38,2.8,2.8,0,0,1-2.11-.84A3.35,3.35,0,0,1,222.95,153.7Zm1.08,0a2.65,2.65,0,0,0,.52,1.79,1.74,1.74,0,0,0,2.62,0,2.71,2.71,0,0,0,.52-1.82,2.57,2.57,0,0,0-.52-1.75,1.74,1.74,0,0,0-2.62,0A2.64,2.64,0,0,0,224,153.7Z"/><path d="M230,156.81v-6.22H231v0.88a2.24,2.24,0,0,1,2-1,2.6,2.6,0,0,1,1,.2,1.63,1.63,0,0,1,.71.53,2,2,0,0,1,.33.78,6,6,0,0,1,.06,1v3.83H234V153a2.84,2.84,0,0,0-.12-1,1,1,0,0,0-.44-0.51,1.39,1.39,0,0,0-.74-0.19,1.71,1.71,0,0,0-1.16.43,2.11,2.11,0,0,0-.49,1.62v3.4H230Z"/><path d="M236.26,155l1-.16a1.46,1.46,0,0,0,.49,1,1.71,1.71,0,0,0,1.12.33,1.65,1.65,0,0,0,1.08-.3,0.88,0.88,0,0,0,.35-0.69,0.64,0.64,0,0,0-.31-0.56,4.57,4.57,0,0,0-1.08-.36,9.84,9.84,0,0,1-1.61-.51,1.54,1.54,0,0,1-.91-1.43,1.6,1.6,0,0,1,.19-0.77,1.71,1.71,0,0,1,.52-0.59,2.17,2.17,0,0,1,.67-0.31,3.19,3.19,0,0,1,.91-0.13,3.6,3.6,0,0,1,1.29.21,1.75,1.75,0,0,1,.82.57,2.23,2.23,0,0,1,.36,1l-1,.14a1.13,1.13,0,0,0-.41-0.75,1.49,1.49,0,0,0-1-.27,1.72,1.72,0,0,0-1,.24,0.7,0.7,0,0,0-.31.56,0.58,0.58,0,0,0,.13.37,0.93,0.93,0,0,0,.4.28l0.93,0.27a13,13,0,0,1,1.56.49,1.58,1.58,0,0,1,.69.55,1.55,1.55,0,0,1,.25.9,1.77,1.77,0,0,1-.31,1,2,2,0,0,1-.89.72,3.23,3.23,0,0,1-1.31.25,2.92,2.92,0,0,1-1.85-.5A2.34,2.34,0,0,1,236.26,155Z"/><path d="M270.92,280.09V271.5h1.71l2,6.08q0.28,0.85.41,1.27,0.15-.47.46-1.38l2.06-6h1.53v8.59H278V272.9l-2.5,7.19h-1L272,272.78v7.31h-1.1Z"/><path d="M285.07,278.09l1.09,0.13a2.66,2.66,0,0,1-1,1.48,3.24,3.24,0,0,1-3.95-.31,3.29,3.29,0,0,1-.8-2.36,3.44,3.44,0,0,1,.81-2.44,2.74,2.74,0,0,1,2.1-.87,2.66,2.66,0,0,1,2,.85,3.38,3.38,0,0,1,.79,2.39q0,0.09,0,.28h-4.64a2.39,2.39,0,0,0,.58,1.57,1.73,1.73,0,0,0,1.3.54,1.61,1.61,0,0,0,1-.3A2,2,0,0,0,285.07,278.09Zm-3.46-1.71h3.47a2.11,2.11,0,0,0-.4-1.18,1.62,1.62,0,0,0-1.31-.61,1.68,1.68,0,0,0-1.22.49A1.92,1.92,0,0,0,281.61,276.38Z"/><path d="M287.49,280.09v-6.22h0.94v0.87a2.22,2.22,0,0,1,.78-0.74,2.19,2.19,0,0,1,1.11-.28,2,2,0,0,1,1.13.29,1.54,1.54,0,0,1,.62.8,2.23,2.23,0,0,1,1.92-1.09,1.89,1.89,0,0,1,1.42.51,2.19,2.19,0,0,1,.5,1.58v4.27h-1v-3.92a2.89,2.89,0,0,0-.1-0.91,0.88,0.88,0,0,0-.37-0.45,1.16,1.16,0,0,0-.63-0.17,1.47,1.47,0,0,0-1.09.44,1.92,1.92,0,0,0-.43,1.4v3.62h-1.05v-4a1.78,1.78,0,0,0-.26-1.05,1,1,0,0,0-.84-0.35,1.53,1.53,0,0,0-.82.23,1.33,1.33,0,0,0-.55.69,3.86,3.86,0,0,0-.17,1.3v3.23h-1.05Z"/><path d="M298.46,280.09h-1V271.5h1.05v3.06a2.09,2.09,0,0,1,1.71-.84,2.61,2.61,0,0,1,1.09.23,2.22,2.22,0,0,1,.84.65,3.14,3.14,0,0,1,.52,1,4.17,4.17,0,0,1,.19,1.27,3.55,3.55,0,0,1-.79,2.47,2.47,2.47,0,0,1-1.9.87,2,2,0,0,1-1.73-.92v0.78Zm0-3.16a3.23,3.23,0,0,0,.3,1.62,1.51,1.51,0,0,0,2.54.21,2.73,2.73,0,0,0,.5-1.79,2.78,2.78,0,0,0-.48-1.8,1.47,1.47,0,0,0-1.17-.58,1.52,1.52,0,0,0-1.2.6A2.64,2.64,0,0,0,298.44,276.93Z"/><path d="M308.42,278.09l1.09,0.13a2.66,2.66,0,0,1-1,1.48,3.24,3.24,0,0,1-3.95-.31,3.29,3.29,0,0,1-.8-2.36,3.44,3.44,0,0,1,.81-2.44,2.74,2.74,0,0,1,2.1-.87,2.66,2.66,0,0,1,2,.85,3.38,3.38,0,0,1,.79,2.39q0,0.09,0,.28h-4.64a2.39,2.39,0,0,0,.58,1.57,1.73,1.73,0,0,0,1.3.54,1.61,1.61,0,0,0,1-.3A2,2,0,0,0,308.42,278.09ZM305,276.38h3.47a2.11,2.11,0,0,0-.4-1.18,1.62,1.62,0,0,0-1.31-.61,1.68,1.68,0,0,0-1.22.49A1.92,1.92,0,0,0,305,276.38Z"/><path d="M310.82,280.09v-6.22h0.95v0.94a2.57,2.57,0,0,1,.67-0.87,1.17,1.17,0,0,1,.68-0.21,2.06,2.06,0,0,1,1.08.34l-0.36,1a1.51,1.51,0,0,0-.77-0.23,1,1,0,0,0-.62.21,1.13,1.13,0,0,0-.39.58,4.11,4.11,0,0,0-.18,1.23v3.26h-1.05Z"/><path d="M314.4,278.24l1-.16a1.46,1.46,0,0,0,.49,1,1.71,1.71,0,0,0,1.12.33,1.65,1.65,0,0,0,1.08-.3,0.88,0.88,0,0,0,.35-0.69,0.64,0.64,0,0,0-.31-0.56,4.57,4.57,0,0,0-1.08-.36,9.84,9.84,0,0,1-1.61-.51,1.54,1.54,0,0,1-.91-1.43,1.6,1.6,0,0,1,.19-0.77,1.71,1.71,0,0,1,.52-0.59,2.17,2.17,0,0,1,.67-0.31,3.19,3.19,0,0,1,.91-0.13,3.6,3.6,0,0,1,1.29.21,1.75,1.75,0,0,1,.82.57,2.23,2.23,0,0,1,.36,1l-1,.14a1.13,1.13,0,0,0-.41-0.75,1.49,1.49,0,0,0-1-.27,1.72,1.72,0,0,0-1,.24,0.7,0.7,0,0,0-.31.56,0.58,0.58,0,0,0,.13.37,0.93,0.93,0,0,0,.4.28l0.93,0.27a13,13,0,0,1,1.56.49,1.58,1.58,0,0,1,.69.55,1.55,1.55,0,0,1,.25.9,1.77,1.77,0,0,1-.31,1,2,2,0,0,1-.89.72,3.23,3.23,0,0,1-1.31.25,2.92,2.92,0,0,1-1.85-.5A2.34,2.34,0,0,1,314.4,278.24Z"/><path d="M270.39,292.64l1-.16a1.46,1.46,0,0,0,.49,1,1.71,1.71,0,0,0,1.12.33,1.65,1.65,0,0,0,1.08-.3,0.88,0.88,0,0,0,.35-0.69,0.64,0.64,0,0,0-.31-0.56,4.57,4.57,0,0,0-1.08-.36,9.84,9.84,0,0,1-1.61-.51,1.54,1.54,0,0,1-.91-1.43,1.6,1.6,0,0,1,.19-0.77,1.71,1.71,0,0,1,.52-0.59,2.17,2.17,0,0,1,.67-0.31,3.19,3.19,0,0,1,.91-0.13,3.6,3.6,0,0,1,1.29.21,1.75,1.75,0,0,1,.82.57,2.23,2.23,0,0,1,.36,1l-1,.14a1.13,1.13,0,0,0-.41-0.75,1.49,1.49,0,0,0-1-.27,1.72,1.72,0,0,0-1,.24,0.7,0.7,0,0,0-.31.56,0.58,0.58,0,0,0,.13.37,0.93,0.93,0,0,0,.4.28l0.93,0.27a13,13,0,0,1,1.56.49,1.58,1.58,0,0,1,.69.55,1.55,1.55,0,0,1,.25.9,1.77,1.77,0,0,1-.31,1,2,2,0,0,1-.89.72,3.23,3.23,0,0,1-1.31.25,2.92,2.92,0,0,1-1.85-.5A2.34,2.34,0,0,1,270.39,292.64Z"/><path d="M280.89,294.49v-0.91a2.28,2.28,0,0,1-2,1.05,2.52,2.52,0,0,1-1-.21,1.69,1.69,0,0,1-.71-0.53,2,2,0,0,1-.33-0.78,5.36,5.36,0,0,1-.06-1v-3.86h1.05v3.45a6.15,6.15,0,0,0,.06,1.11,1.1,1.1,0,0,0,.42.65,1.31,1.31,0,0,0,.8.24,1.74,1.74,0,0,0,.89-0.24,1.35,1.35,0,0,0,.59-0.66,3.32,3.32,0,0,0,.17-1.22v-3.33h1.05v6.22h-0.94Z"/><path d="M284.46,294.49h-1V285.9h1.05V289a2.09,2.09,0,0,1,1.71-.84,2.61,2.61,0,0,1,1.09.23,2.22,2.22,0,0,1,.84.65,3.14,3.14,0,0,1,.52,1,4.17,4.17,0,0,1,.19,1.27,3.55,3.55,0,0,1-.79,2.47,2.47,2.47,0,0,1-1.9.87,2,2,0,0,1-1.73-.92v0.78Zm0-3.16a3.23,3.23,0,0,0,.3,1.62,1.51,1.51,0,0,0,2.54.21,2.73,2.73,0,0,0,.5-1.79,2.78,2.78,0,0,0-.48-1.8,1.47,1.47,0,0,0-1.17-.58,1.52,1.52,0,0,0-1.2.6A2.64,2.64,0,0,0,284.45,291.33Z"/><path d="M290.16,294.49v-6.22h0.94v0.87a2.22,2.22,0,0,1,.78-0.74,2.19,2.19,0,0,1,1.11-.28,2,2,0,0,1,1.13.29,1.54,1.54,0,0,1,.62.8,2.23,2.23,0,0,1,1.92-1.09,1.89,1.89,0,0,1,1.42.51,2.19,2.19,0,0,1,.5,1.58v4.27h-1v-3.92a2.89,2.89,0,0,0-.1-0.91,0.88,0.88,0,0,0-.37-0.45,1.16,1.16,0,0,0-.63-0.17,1.47,1.47,0,0,0-1.09.44,1.92,1.92,0,0,0-.43,1.4v3.62h-1.05v-4a1.78,1.78,0,0,0-.26-1.05,1,1,0,0,0-.84-0.35,1.53,1.53,0,0,0-.82.23,1.33,1.33,0,0,0-.55.69,3.86,3.86,0,0,0-.17,1.3v3.23h-1.05Z"/><path d="M300.17,287.12V285.9h1.05v1.21h-1.05Zm0,7.38v-6.22h1.05v6.22h-1.05Z"/><path d="M305.13,293.55l0.15,0.93a3.91,3.91,0,0,1-.8.09,1.8,1.8,0,0,1-.89-0.18,1,1,0,0,1-.45-0.48,3.78,3.78,0,0,1-.13-1.25v-3.58h-0.77v-0.82H303v-1.54l1-.63v2.17h1.06v0.82h-1.06v3.64a1.84,1.84,0,0,0,.06.58,0.44,0.44,0,0,0,.18.21,0.7,0.7,0,0,0,.36.08A3.43,3.43,0,0,0,305.13,293.55Z"/><path d="M270.82,311.28v-8.61h1v0.81a2.37,2.37,0,0,1,.77-0.71,2.11,2.11,0,0,1,1-.24,2.46,2.46,0,0,1,1.41.41,2.52,2.52,0,0,1,.92,1.16,4.23,4.23,0,0,1,.31,1.64,4.16,4.16,0,0,1-.34,1.72,2.58,2.58,0,0,1-1,1.17,2.56,2.56,0,0,1-1.37.41,2,2,0,0,1-.95-0.22,2.15,2.15,0,0,1-.69-0.56v3h-1.05Zm1-5.46a2.71,2.71,0,0,0,.49,1.78,1.49,1.49,0,0,0,1.18.57,1.52,1.52,0,0,0,1.2-.59,2.82,2.82,0,0,0,.5-1.84,2.75,2.75,0,0,0-.49-1.78,1.47,1.47,0,0,0-1.17-.59,1.52,1.52,0,0,0-1.19.63A2.82,2.82,0,0,0,271.77,305.82Z"/><path d="M277.48,308.89v-6.22h0.95v0.94a2.57,2.57,0,0,1,.67-0.87,1.17,1.17,0,0,1,.68-0.21,2.06,2.06,0,0,1,1.08.34l-0.36,1a1.51,1.51,0,0,0-.77-0.23,1,1,0,0,0-.62.21,1.13,1.13,0,0,0-.39.58,4.11,4.11,0,0,0-.18,1.23v3.26h-1.05Z"/><path d="M281.09,305.78a3.21,3.21,0,0,1,1-2.56,2.9,2.9,0,0,1,2-.69,2.79,2.79,0,0,1,2.1.84,3.2,3.2,0,0,1,.81,2.32,4.12,4.12,0,0,1-.36,1.89,2.55,2.55,0,0,1-1,1.07,3.05,3.05,0,0,1-1.5.38,2.8,2.8,0,0,1-2.11-.84A3.35,3.35,0,0,1,281.09,305.78Zm1.08,0a2.65,2.65,0,0,0,.52,1.79,1.74,1.74,0,0,0,2.62,0,2.71,2.71,0,0,0,.52-1.82,2.57,2.57,0,0,0-.52-1.75,1.74,1.74,0,0,0-2.62,0A2.64,2.64,0,0,0,282.18,305.78Z"/><path d="M288.16,311.28v-8.61h1v0.81a2.37,2.37,0,0,1,.77-0.71,2.11,2.11,0,0,1,1-.24,2.46,2.46,0,0,1,1.41.41,2.52,2.52,0,0,1,.92,1.16,4.23,4.23,0,0,1,.31,1.64,4.16,4.16,0,0,1-.34,1.72,2.58,2.58,0,0,1-1,1.17,2.56,2.56,0,0,1-1.37.41,2,2,0,0,1-.95-0.22,2.15,2.15,0,0,1-.69-0.56v3h-1.05Zm1-5.46a2.71,2.71,0,0,0,.49,1.78,1.49,1.49,0,0,0,1.18.57,1.52,1.52,0,0,0,1.2-.59,2.82,2.82,0,0,0,.5-1.84,2.75,2.75,0,0,0-.49-1.78,1.47,1.47,0,0,0-1.17-.59,1.52,1.52,0,0,0-1.19.63A2.82,2.82,0,0,0,289.12,305.82Z"/><path d="M294.44,305.78a3.21,3.21,0,0,1,1-2.56,2.9,2.9,0,0,1,2-.69,2.79,2.79,0,0,1,2.1.84,3.2,3.2,0,0,1,.81,2.32,4.12,4.12,0,0,1-.36,1.89,2.55,2.55,0,0,1-1,1.07,3.05,3.05,0,0,1-1.5.38,2.8,2.8,0,0,1-2.11-.84A3.35,3.35,0,0,1,294.44,305.78Zm1.08,0a2.65,2.65,0,0,0,.52,1.79,1.74,1.74,0,0,0,2.62,0,2.71,2.71,0,0,0,.52-1.82,2.57,2.57,0,0,0-.52-1.75,1.74,1.74,0,0,0-2.62,0A2.64,2.64,0,0,0,295.53,305.78Z"/><path d="M301.09,307l1-.16a1.46,1.46,0,0,0,.49,1,1.71,1.71,0,0,0,1.12.33,1.65,1.65,0,0,0,1.08-.3,0.88,0.88,0,0,0,.35-0.69,0.64,0.64,0,0,0-.31-0.56,4.57,4.57,0,0,0-1.08-.36,9.84,9.84,0,0,1-1.61-.51,1.54,1.54,0,0,1-.91-1.43,1.6,1.6,0,0,1,.19-0.77A1.71,1.71,0,0,1,302,303a2.17,2.17,0,0,1,.67-0.31,3.19,3.19,0,0,1,.91-0.13,3.6,3.6,0,0,1,1.29.21,1.75,1.75,0,0,1,.82.57,2.23,2.23,0,0,1,.36,1l-1,.14a1.13,1.13,0,0,0-.41-0.75,1.49,1.49,0,0,0-1-.27,1.72,1.72,0,0,0-1,.24,0.7,0.7,0,0,0-.31.56,0.58,0.58,0,0,0,.13.37,0.93,0.93,0,0,0,.4.28l0.93,0.27a13,13,0,0,1,1.56.49,1.58,1.58,0,0,1,.69.55,1.55,1.55,0,0,1,.25.9,1.77,1.77,0,0,1-.31,1,2,2,0,0,1-.89.72,3.23,3.23,0,0,1-1.31.25,2.92,2.92,0,0,1-1.85-.5A2.34,2.34,0,0,1,301.09,307Z"/><path d="M311.57,308.13a3.93,3.93,0,0,1-1.13.7,3.26,3.26,0,0,1-1.16.21,2.26,2.26,0,0,1-1.58-.5,1.65,1.65,0,0,1-.55-1.28,1.7,1.7,0,0,1,.21-0.83,1.72,1.72,0,0,1,.54-0.61,2.56,2.56,0,0,1,.76-0.35,7.54,7.54,0,0,1,.94-0.16,9.64,9.64,0,0,0,1.88-.36q0-.22,0-0.28a1.16,1.16,0,0,0-.3-0.91,1.76,1.76,0,0,0-1.2-.36,1.86,1.86,0,0,0-1.1.26,1.59,1.59,0,0,0-.52.92l-1-.14a2.56,2.56,0,0,1,.46-1.07,2,2,0,0,1,.93-0.63,4.16,4.16,0,0,1,1.41-.22,3.74,3.74,0,0,1,1.29.19,1.71,1.71,0,0,1,.73.47,1.66,1.66,0,0,1,.33.72,5.94,5.94,0,0,1,.05,1v1.41a14.93,14.93,0,0,0,.07,1.86,2.35,2.35,0,0,0,.27.75h-1.1A2.24,2.24,0,0,1,311.57,308.13Zm-0.09-2.36a7.74,7.74,0,0,1-1.72.4,4,4,0,0,0-.92.21,0.92,0.92,0,0,0-.42.34,0.93,0.93,0,0,0,.17,1.2,1.37,1.37,0,0,0,.93.28,2.18,2.18,0,0,0,1.08-.27,1.64,1.64,0,0,0,.7-0.73,2.55,2.55,0,0,0,.17-1.05v-0.39Z"/><path d="M314.16,308.89V300.3h1.05v8.59h-1.05Z"/><path d="M316.43,307l1-.16a1.46,1.46,0,0,0,.49,1,1.71,1.71,0,0,0,1.12.33,1.65,1.65,0,0,0,1.08-.3,0.88,0.88,0,0,0,.35-0.69,0.64,0.64,0,0,0-.31-0.56,4.57,4.57,0,0,0-1.08-.36,9.84,9.84,0,0,1-1.61-.51,1.54,1.54,0,0,1-.91-1.43,1.6,1.6,0,0,1,.19-0.77,1.71,1.71,0,0,1,.52-0.59,2.17,2.17,0,0,1,.67-0.31,3.19,3.19,0,0,1,.91-0.13,3.6,3.6,0,0,1,1.29.21,1.75,1.75,0,0,1,.82.57,2.23,2.23,0,0,1,.36,1l-1,.14a1.13,1.13,0,0,0-.41-0.75,1.49,1.49,0,0,0-1-.27,1.72,1.72,0,0,0-1,.24,0.7,0.7,0,0,0-.31.56,0.58,0.58,0,0,0,.13.37,0.93,0.93,0,0,0,.4.28l0.93,0.27a13,13,0,0,1,1.56.49,1.58,1.58,0,0,1,.69.55,1.55,1.55,0,0,1,.25.9,1.77,1.77,0,0,1-.31,1,2,2,0,0,1-.89.72,3.23,3.23,0,0,1-1.31.25,2.92,2.92,0,0,1-1.85-.5A2.34,2.34,0,0,1,316.43,307Z"/><path d="M328.48,308l0.15,0.93a3.91,3.91,0,0,1-.8.09,1.8,1.8,0,0,1-.89-0.18,1,1,0,0,1-.45-0.48,3.78,3.78,0,0,1-.13-1.25v-3.58H325.6v-0.82h0.77v-1.54l1-.63v2.17h1.06v0.82h-1.06v3.64a1.84,1.84,0,0,0,.06.58,0.44,0.44,0,0,0,.18.21,0.7,0.7,0,0,0,.36.08A3.43,3.43,0,0,0,328.48,308Z"/><path d="M329.12,305.78a3.21,3.21,0,0,1,1-2.56,2.9,2.9,0,0,1,2-.69,2.79,2.79,0,0,1,2.1.84,3.2,3.2,0,0,1,.81,2.32,4.12,4.12,0,0,1-.36,1.89,2.55,2.55,0,0,1-1,1.07,3.05,3.05,0,0,1-1.5.38,2.8,2.8,0,0,1-2.11-.84A3.35,3.35,0,0,1,329.12,305.78Zm1.08,0a2.65,2.65,0,0,0,.52,1.79,1.74,1.74,0,0,0,2.62,0,2.71,2.71,0,0,0,.52-1.82,2.57,2.57,0,0,0-.52-1.75,1.74,1.74,0,0,0-2.62,0A2.64,2.64,0,0,0,330.21,305.78Z"/><path d="M277.08,320.28l1.14,0.29a3.83,3.83,0,0,1-1.29,2.14,3.54,3.54,0,0,1-2.27.74,4.08,4.08,0,0,1-2.26-.57,3.53,3.53,0,0,1-1.32-1.64,5.84,5.84,0,0,1-.45-2.3,5.06,5.06,0,0,1,.51-2.34,3.51,3.51,0,0,1,1.46-1.52,4.26,4.26,0,0,1,2.08-.52,3.52,3.52,0,0,1,2.17.66,3.41,3.41,0,0,1,1.22,1.85l-1.12.26a2.65,2.65,0,0,0-.87-1.37,2.31,2.31,0,0,0-1.43-.43A2.78,2.78,0,0,0,273,316a2.51,2.51,0,0,0-.93,1.27,5.13,5.13,0,0,0-.27,1.65,5.24,5.24,0,0,0,.32,1.91,2.38,2.38,0,0,0,1,1.22,2.79,2.79,0,0,0,1.46.4,2.44,2.44,0,0,0,1.62-.55A2.82,2.82,0,0,0,277.08,320.28Z"/><path d="M279.09,320.18a3.21,3.21,0,0,1,1-2.56,2.9,2.9,0,0,1,2-.69,2.79,2.79,0,0,1,2.1.84,3.2,3.2,0,0,1,.81,2.32,4.12,4.12,0,0,1-.36,1.89,2.55,2.55,0,0,1-1,1.07,3.05,3.05,0,0,1-1.5.38,2.8,2.8,0,0,1-2.11-.84A3.35,3.35,0,0,1,279.09,320.18Zm1.08,0a2.65,2.65,0,0,0,.52,1.79,1.74,1.74,0,0,0,2.62,0,2.71,2.71,0,0,0,.52-1.82,2.57,2.57,0,0,0-.52-1.75,1.74,1.74,0,0,0-2.62,0A2.64,2.64,0,0,0,280.17,320.18Z"/><path d="M285.76,320.18a3.21,3.21,0,0,1,1-2.56,2.9,2.9,0,0,1,2-.69,2.79,2.79,0,0,1,2.1.84,3.2,3.2,0,0,1,.81,2.32,4.12,4.12,0,0,1-.36,1.89,2.55,2.55,0,0,1-1,1.07,3.05,3.05,0,0,1-1.5.38,2.8,2.8,0,0,1-2.11-.84A3.35,3.35,0,0,1,285.76,320.18Zm1.08,0a2.65,2.65,0,0,0,.52,1.79,1.74,1.74,0,0,0,2.62,0,2.71,2.71,0,0,0,.52-1.82,2.57,2.57,0,0,0-.52-1.75,1.74,1.74,0,0,0-2.62,0A2.64,2.64,0,0,0,286.85,320.18Z"/><path d="M292.83,325.68v-8.61h1v0.81a2.37,2.37,0,0,1,.77-0.71,2.11,2.11,0,0,1,1-.24,2.46,2.46,0,0,1,1.41.41,2.52,2.52,0,0,1,.92,1.16,4.23,4.23,0,0,1,.31,1.64,4.16,4.16,0,0,1-.34,1.72,2.58,2.58,0,0,1-1,1.17,2.56,2.56,0,0,1-1.37.41,2,2,0,0,1-.95-0.22,2.15,2.15,0,0,1-.69-0.56v3h-1.05Zm1-5.46a2.71,2.71,0,0,0,.49,1.78,1.49,1.49,0,0,0,1.18.57,1.52,1.52,0,0,0,1.2-.59,2.82,2.82,0,0,0,.5-1.84,2.75,2.75,0,0,0-.49-1.78,1.47,1.47,0,0,0-1.17-.59,1.52,1.52,0,0,0-1.19.63A2.82,2.82,0,0,0,293.79,320.22Z"/><path d="M303,323.29V314.7h5.79v1h-4.66v2.66h4v1h-4v3.9H303Z"/><path d="M314.25,323.29v-0.91a2.28,2.28,0,0,1-2,1.05,2.52,2.52,0,0,1-1-.21,1.69,1.69,0,0,1-.71-0.53,2,2,0,0,1-.33-0.78,5.36,5.36,0,0,1-.06-1v-3.86h1.05v3.45a6.15,6.15,0,0,0,.06,1.11,1.1,1.1,0,0,0,.42.65,1.31,1.31,0,0,0,.8.24,1.74,1.74,0,0,0,.89-0.24,1.35,1.35,0,0,0,.59-0.66,3.32,3.32,0,0,0,.17-1.22v-3.33h1.05v6.22h-0.94Z"/><path d="M316.84,323.29v-6.22h0.95V318a2.24,2.24,0,0,1,2-1,2.6,2.6,0,0,1,1,.2,1.63,1.63,0,0,1,.71.53,2,2,0,0,1,.33.78,6,6,0,0,1,.06,1v3.83h-1.05v-3.79a2.84,2.84,0,0,0-.12-1,1,1,0,0,0-.44-0.51,1.39,1.39,0,0,0-.74-0.19,1.71,1.71,0,0,0-1.16.43,2.11,2.11,0,0,0-.49,1.62v3.4h-1.05Z"/><path d="M327.55,323.29v-0.79a1.94,1.94,0,0,1-1.74.93,2.44,2.44,0,0,1-1.37-.41,2.7,2.7,0,0,1-1-1.15,4,4,0,0,1-.34-1.69,4.42,4.42,0,0,1,.31-1.69,2.45,2.45,0,0,1,.93-1.16,2.49,2.49,0,0,1,1.39-.4,2.08,2.08,0,0,1,1.72.86V314.7h1v8.59h-1Zm-3.33-3.11a2.7,2.7,0,0,0,.5,1.79,1.52,1.52,0,0,0,1.19.59,1.49,1.49,0,0,0,1.17-.57,2.61,2.61,0,0,0,.48-1.73,2.93,2.93,0,0,0-.49-1.87,1.51,1.51,0,0,0-1.21-.6,1.46,1.46,0,0,0-1.17.57A2.83,2.83,0,0,0,324.22,320.19Z"/><path d="M10.92,280.09V271.5h1.71l2,6.08q0.28,0.85.41,1.27,0.15-.47.46-1.38l2.06-6h1.53v8.59H18V272.9l-2.5,7.19h-1L12,272.78v7.31h-1.1Z"/><path d="M25.07,278.09l1.09,0.13a2.66,2.66,0,0,1-1,1.48,2.87,2.87,0,0,1-1.78.53,2.85,2.85,0,0,1-2.17-.84,3.29,3.29,0,0,1-.8-2.36,3.44,3.44,0,0,1,.81-2.44,2.74,2.74,0,0,1,2.1-.87,2.66,2.66,0,0,1,2,.85A3.38,3.38,0,0,1,26.2,277q0,0.09,0,.28H21.55a2.39,2.39,0,0,0,.58,1.57,1.73,1.73,0,0,0,1.3.54,1.61,1.61,0,0,0,1-.3A2,2,0,0,0,25.07,278.09Zm-3.46-1.71h3.47a2.11,2.11,0,0,0-.4-1.18,1.62,1.62,0,0,0-1.31-.61,1.68,1.68,0,0,0-1.22.49A1.92,1.92,0,0,0,21.61,276.38Z"/><path d="M27.49,280.09v-6.22h0.94v0.87a2.22,2.22,0,0,1,.78-0.74,2.19,2.19,0,0,1,1.11-.28,2,2,0,0,1,1.13.29,1.54,1.54,0,0,1,.62.8A2.23,2.23,0,0,1,34,273.73a1.89,1.89,0,0,1,1.42.51,2.19,2.19,0,0,1,.5,1.58v4.27h-1v-3.92a2.89,2.89,0,0,0-.1-0.91,0.88,0.88,0,0,0-.37-0.45,1.16,1.16,0,0,0-.63-0.17,1.47,1.47,0,0,0-1.09.44,1.92,1.92,0,0,0-.43,1.4v3.62H31.18v-4a1.78,1.78,0,0,0-.26-1.05,1,1,0,0,0-.84-0.35,1.53,1.53,0,0,0-.82.23,1.33,1.33,0,0,0-.55.69,3.86,3.86,0,0,0-.17,1.3v3.23H27.49Z"/><path d="M38.46,280.09h-1V271.5h1.05v3.06a2.09,2.09,0,0,1,1.71-.84,2.61,2.61,0,0,1,1.09.23,2.22,2.22,0,0,1,.84.65,3.14,3.14,0,0,1,.52,1,4.17,4.17,0,0,1,.19,1.27,3.55,3.55,0,0,1-.79,2.47,2.47,2.47,0,0,1-1.9.87,2,2,0,0,1-1.73-.92v0.78Zm0-3.16a3.23,3.23,0,0,0,.3,1.62,1.51,1.51,0,0,0,2.54.21,2.73,2.73,0,0,0,.5-1.79,2.78,2.78,0,0,0-.48-1.8,1.47,1.47,0,0,0-1.17-.58,1.52,1.52,0,0,0-1.2.6A2.64,2.64,0,0,0,38.44,276.93Z"/><path d="M48.42,278.09l1.09,0.13a2.66,2.66,0,0,1-1,1.48,3.24,3.24,0,0,1-3.95-.31,3.29,3.29,0,0,1-.8-2.36,3.44,3.44,0,0,1,.81-2.44,2.74,2.74,0,0,1,2.1-.87,2.66,2.66,0,0,1,2,.85,3.38,3.38,0,0,1,.79,2.39q0,0.09,0,.28H44.89a2.39,2.39,0,0,0,.58,1.57,1.73,1.73,0,0,0,1.3.54,1.61,1.61,0,0,0,1-.3A2,2,0,0,0,48.42,278.09ZM45,276.38h3.47a2.11,2.11,0,0,0-.4-1.18,1.62,1.62,0,0,0-1.31-.61,1.68,1.68,0,0,0-1.22.49A1.92,1.92,0,0,0,45,276.38Z"/><path d="M50.82,280.09v-6.22h0.95v0.94a2.57,2.57,0,0,1,.67-0.87,1.17,1.17,0,0,1,.68-0.21,2.06,2.06,0,0,1,1.08.34l-0.36,1a1.51,1.51,0,0,0-.77-0.23,1,1,0,0,0-.62.21,1.13,1.13,0,0,0-.39.58,4.11,4.11,0,0,0-.18,1.23v3.26H50.82Z"/><path d="M54.4,278.24l1-.16a1.46,1.46,0,0,0,.49,1,1.71,1.71,0,0,0,1.12.33,1.65,1.65,0,0,0,1.08-.3,0.88,0.88,0,0,0,.35-0.69,0.64,0.64,0,0,0-.31-0.56,4.57,4.57,0,0,0-1.08-.36,9.84,9.84,0,0,1-1.61-.51,1.54,1.54,0,0,1-.91-1.43,1.6,1.6,0,0,1,.19-0.77,1.71,1.71,0,0,1,.52-0.59,2.17,2.17,0,0,1,.67-0.31,3.19,3.19,0,0,1,.91-0.13,3.6,3.6,0,0,1,1.29.21,1.75,1.75,0,0,1,.82.57,2.23,2.23,0,0,1,.36,1l-1,.14a1.13,1.13,0,0,0-.41-0.75,1.49,1.49,0,0,0-1-.27,1.72,1.72,0,0,0-1,.24,0.7,0.7,0,0,0-.31.56,0.58,0.58,0,0,0,.13.37,0.93,0.93,0,0,0,.4.28l0.93,0.27a13,13,0,0,1,1.56.49,1.58,1.58,0,0,1,.69.55,1.55,1.55,0,0,1,.25.9,1.77,1.77,0,0,1-.31,1,2,2,0,0,1-.89.72,3.23,3.23,0,0,1-1.31.25,2.92,2.92,0,0,1-1.85-.5A2.34,2.34,0,0,1,54.4,278.24Z"/><path d="M65.89,280.09l-2.37-6.22h1.11L66,277.6q0.22,0.6.4,1.25,0.14-.49.39-1.18l1.38-3.8h1.08l-2.36,6.22h-1Z"/><path d="M69.77,277a3.21,3.21,0,0,1,1-2.56,2.9,2.9,0,0,1,2-.69,2.79,2.79,0,0,1,2.1.84,3.2,3.2,0,0,1,.81,2.32,4.12,4.12,0,0,1-.36,1.89,2.55,2.55,0,0,1-1,1.07,3.05,3.05,0,0,1-1.5.38,2.8,2.8,0,0,1-2.11-.84A3.35,3.35,0,0,1,69.77,277Zm1.08,0a2.65,2.65,0,0,0,.52,1.79,1.74,1.74,0,0,0,2.62,0,2.71,2.71,0,0,0,.52-1.82A2.57,2.57,0,0,0,74,275.2a1.74,1.74,0,0,0-2.62,0A2.64,2.64,0,0,0,70.85,277Z"/><path d="M79.14,279.15l0.15,0.93a3.91,3.91,0,0,1-.8.09A1.8,1.8,0,0,1,77.6,280a1,1,0,0,1-.45-0.48,3.78,3.78,0,0,1-.13-1.25v-3.58H76.25v-0.82H77v-1.54l1-.63v2.17h1.06v0.82H78.08v3.64a1.84,1.84,0,0,0,.06.58,0.44,0.44,0,0,0,.18.21,0.7,0.7,0,0,0,.36.08A3.43,3.43,0,0,0,79.14,279.15Z"/><path d="M84.43,278.09l1.09,0.13a2.66,2.66,0,0,1-1,1.48,3.24,3.24,0,0,1-3.95-.31,3.29,3.29,0,0,1-.8-2.36,3.44,3.44,0,0,1,.81-2.44,2.74,2.74,0,0,1,2.1-.87,2.66,2.66,0,0,1,2,.85,3.38,3.38,0,0,1,.79,2.39q0,0.09,0,.28H80.91a2.39,2.39,0,0,0,.58,1.57,1.73,1.73,0,0,0,1.3.54,1.61,1.61,0,0,0,1-.3A2,2,0,0,0,84.43,278.09ZM81,276.38h3.47a2.11,2.11,0,0,0-.4-1.18,1.62,1.62,0,0,0-1.31-.61,1.68,1.68,0,0,0-1.22.49A1.92,1.92,0,0,0,81,276.38Z"/><path d="M10.42,291.38a3.21,3.21,0,0,1,1-2.56,2.9,2.9,0,0,1,2-.69,2.79,2.79,0,0,1,2.1.84,3.2,3.2,0,0,1,.81,2.32,4.12,4.12,0,0,1-.36,1.89,2.55,2.55,0,0,1-1,1.07,3.05,3.05,0,0,1-1.5.38,2.8,2.8,0,0,1-2.11-.84A3.35,3.35,0,0,1,10.42,291.38Zm1.08,0a2.65,2.65,0,0,0,.52,1.79,1.74,1.74,0,0,0,2.62,0,2.71,2.71,0,0,0,.52-1.82,2.57,2.57,0,0,0-.52-1.75,1.74,1.74,0,0,0-2.62,0A2.64,2.64,0,0,0,11.51,291.38Z"/><path d="M17.49,294.49v-6.22h0.95v0.88a2.24,2.24,0,0,1,2-1,2.6,2.6,0,0,1,1,.2,1.63,1.63,0,0,1,.71.53,2,2,0,0,1,.33.78,6,6,0,0,1,.06,1v3.83H21.49v-3.79a2.83,2.83,0,0,0-.12-1,1,1,0,0,0-.44-0.51A1.39,1.39,0,0,0,20.2,289a1.71,1.71,0,0,0-1.16.43,2.11,2.11,0,0,0-.49,1.62v3.4H17.49Z"/><path d="M28.65,294.49l-1.9-6.22h1.09l1,3.59,0.37,1.34,0.32-1.28,1-3.64h1.08l0.93,3.61,0.31,1.19,0.36-1.2,1.07-3.6h1l-1.95,6.22h-1.1l-1-3.73L31,289.71l-1.26,4.79h-1.1Z"/><path d="M36.16,294.49V285.9h1.05V289a2.36,2.36,0,0,1,1.86-.86,2.51,2.51,0,0,1,1.2.27,1.6,1.6,0,0,1,.73.75,3.47,3.47,0,0,1,.22,1.39v3.94H40.18v-3.94a1.63,1.63,0,0,0-.34-1.15,1.28,1.28,0,0,0-1-.36,1.71,1.71,0,0,0-.88.24,1.37,1.37,0,0,0-.59.66,3,3,0,0,0-.18,1.15v3.4H36.16Z"/><path d="M42.84,287.12V285.9H43.9v1.21H42.84Zm0,7.38v-6.22H43.9v6.22H42.84Z"/><path d="M49.56,292.21l1,0.13a2.69,2.69,0,0,1-.87,1.68,2.53,2.53,0,0,1-1.72.61A2.67,2.67,0,0,1,46,293.8a3.39,3.39,0,0,1-.78-2.39,4.33,4.33,0,0,1,.33-1.76,2.33,2.33,0,0,1,1-1.13,3,3,0,0,1,1.49-.38,2.58,2.58,0,0,1,1.66.51,2.35,2.35,0,0,1,.83,1.46l-1,.16a1.7,1.7,0,0,0-.52-0.94,1.34,1.34,0,0,0-.9-0.32,1.64,1.64,0,0,0-1.29.57,2.71,2.71,0,0,0-.5,1.81,2.8,2.8,0,0,0,.48,1.82,1.56,1.56,0,0,0,1.25.57,1.48,1.48,0,0,0,1-.38A1.89,1.89,0,0,0,49.56,292.21Z"/><path d="M51.5,294.49V285.9h1.05V289a2.36,2.36,0,0,1,1.86-.86,2.51,2.51,0,0,1,1.2.27,1.6,1.6,0,0,1,.73.75,3.47,3.47,0,0,1,.22,1.39v3.94H55.52v-3.94a1.63,1.63,0,0,0-.34-1.15,1.28,1.28,0,0,0-1-.36,1.71,1.71,0,0,0-.88.24,1.37,1.37,0,0,0-.59.66,3,3,0,0,0-.18,1.15v3.4H51.5Z"/><path d="M10.82,311.28v-8.61h1v0.81a2.37,2.37,0,0,1,.77-0.71,2.11,2.11,0,0,1,1-.24,2.46,2.46,0,0,1,1.41.41,2.52,2.52,0,0,1,.92,1.16,4.22,4.22,0,0,1,.31,1.64,4.16,4.16,0,0,1-.34,1.72,2.58,2.58,0,0,1-1,1.17,2.56,2.56,0,0,1-1.37.41,2,2,0,0,1-.95-0.22,2.15,2.15,0,0,1-.69-0.56v3H10.82Zm1-5.46a2.71,2.71,0,0,0,.49,1.78,1.49,1.49,0,0,0,1.18.57,1.52,1.52,0,0,0,1.2-.59,2.82,2.82,0,0,0,.5-1.84,2.75,2.75,0,0,0-.49-1.78,1.47,1.47,0,0,0-1.17-.59,1.52,1.52,0,0,0-1.19.63A2.82,2.82,0,0,0,11.77,305.82Z"/><path d="M17.48,308.89v-6.22h0.95v0.94a2.57,2.57,0,0,1,.67-0.87,1.17,1.17,0,0,1,.68-0.21,2.06,2.06,0,0,1,1.08.34l-0.36,1a1.51,1.51,0,0,0-.77-0.23,1,1,0,0,0-.62.21,1.12,1.12,0,0,0-.39.58,4.11,4.11,0,0,0-.18,1.23v3.26H17.48Z"/><path d="M21.09,305.78a3.21,3.21,0,0,1,1-2.56,2.9,2.9,0,0,1,2-.69,2.79,2.79,0,0,1,2.1.84,3.2,3.2,0,0,1,.81,2.32,4.12,4.12,0,0,1-.36,1.89,2.55,2.55,0,0,1-1,1.07A3.05,3.05,0,0,1,24,309a2.8,2.8,0,0,1-2.11-.84A3.35,3.35,0,0,1,21.09,305.78Zm1.08,0a2.65,2.65,0,0,0,.52,1.79,1.74,1.74,0,0,0,2.62,0,2.71,2.71,0,0,0,.52-1.82,2.57,2.57,0,0,0-.52-1.75,1.74,1.74,0,0,0-2.62,0A2.64,2.64,0,0,0,22.18,305.78Z"/><path d="M28.16,311.28v-8.61h1v0.81a2.37,2.37,0,0,1,.77-0.71,2.11,2.11,0,0,1,1-.24,2.46,2.46,0,0,1,1.41.41,2.52,2.52,0,0,1,.92,1.16,4.22,4.22,0,0,1,.31,1.64,4.16,4.16,0,0,1-.34,1.72,2.58,2.58,0,0,1-1,1.17,2.56,2.56,0,0,1-1.37.41,2,2,0,0,1-.95-0.22,2.15,2.15,0,0,1-.69-0.56v3H28.16Zm1-5.46a2.71,2.71,0,0,0,.49,1.78,1.49,1.49,0,0,0,1.18.57,1.52,1.52,0,0,0,1.2-.59,2.82,2.82,0,0,0,.5-1.84,2.75,2.75,0,0,0-.49-1.78,1.47,1.47,0,0,0-1.17-.59,1.52,1.52,0,0,0-1.19.63A2.82,2.82,0,0,0,29.12,305.82Z"/><path d="M34.44,305.78a3.21,3.21,0,0,1,1-2.56,2.9,2.9,0,0,1,2-.69,2.79,2.79,0,0,1,2.1.84,3.2,3.2,0,0,1,.81,2.32,4.12,4.12,0,0,1-.36,1.89,2.55,2.55,0,0,1-1,1.07,3.05,3.05,0,0,1-1.5.38,2.8,2.8,0,0,1-2.11-.84A3.35,3.35,0,0,1,34.44,305.78Zm1.08,0a2.65,2.65,0,0,0,.52,1.79,1.74,1.74,0,0,0,2.62,0,2.71,2.71,0,0,0,.52-1.82,2.57,2.57,0,0,0-.52-1.75A1.74,1.74,0,0,0,36,304,2.64,2.64,0,0,0,35.53,305.78Z"/><path d="M41.09,307l1-.16a1.46,1.46,0,0,0,.49,1,1.71,1.71,0,0,0,1.12.33,1.65,1.65,0,0,0,1.08-.29,0.89,0.89,0,0,0,.35-0.7,0.64,0.64,0,0,0-.31-0.56,4.57,4.57,0,0,0-1.08-.36,9.86,9.86,0,0,1-1.61-.51,1.54,1.54,0,0,1-.91-1.43,1.6,1.6,0,0,1,.19-0.77A1.71,1.71,0,0,1,42,303a2.17,2.17,0,0,1,.67-0.31,3.19,3.19,0,0,1,.91-0.13,3.6,3.6,0,0,1,1.29.21,1.75,1.75,0,0,1,.82.57,2.23,2.23,0,0,1,.36,1l-1,.14a1.13,1.13,0,0,0-.41-0.75,1.49,1.49,0,0,0-1-.27,1.72,1.72,0,0,0-1,.24,0.7,0.7,0,0,0-.31.56,0.58,0.58,0,0,0,.13.37,0.93,0.93,0,0,0,.4.28l0.93,0.27a12.92,12.92,0,0,1,1.56.49,1.58,1.58,0,0,1,.69.55,1.55,1.55,0,0,1,.25.9,1.77,1.77,0,0,1-.31,1,2,2,0,0,1-.89.72,3.23,3.23,0,0,1-1.31.25,2.92,2.92,0,0,1-1.85-.5A2.34,2.34,0,0,1,41.09,307Z"/><path d="M51.57,308.13a3.93,3.93,0,0,1-1.13.7,3.26,3.26,0,0,1-1.16.21,2.26,2.26,0,0,1-1.58-.5,1.66,1.66,0,0,1-.55-1.28,1.7,1.7,0,0,1,.21-0.83,1.73,1.73,0,0,1,.54-0.61,2.56,2.56,0,0,1,.76-0.35,7.54,7.54,0,0,1,.94-0.16,9.64,9.64,0,0,0,1.88-.36q0-.22,0-0.28a1.16,1.16,0,0,0-.3-0.91,1.77,1.77,0,0,0-1.2-.36,1.86,1.86,0,0,0-1.1.26,1.59,1.59,0,0,0-.52.92l-1-.14a2.55,2.55,0,0,1,.46-1.07,2,2,0,0,1,.93-0.63,4.15,4.15,0,0,1,1.41-.22,3.74,3.74,0,0,1,1.29.19,1.71,1.71,0,0,1,.73.47,1.65,1.65,0,0,1,.33.72,5.94,5.94,0,0,1,.05,1v1.41a15,15,0,0,0,.07,1.86,2.34,2.34,0,0,0,.27.75h-1.1A2.24,2.24,0,0,1,51.57,308.13Zm-0.09-2.36a7.74,7.74,0,0,1-1.72.4,4,4,0,0,0-.92.21,0.92,0.92,0,0,0-.42.34,0.93,0.93,0,0,0,.17,1.2,1.37,1.37,0,0,0,.93.28,2.17,2.17,0,0,0,1.08-.27,1.64,1.64,0,0,0,.7-0.73,2.55,2.55,0,0,0,.17-1.05v-0.39Z"/><path d="M54.16,308.89V300.3h1.05v8.59H54.16Z"/><path d="M56.43,307l1-.16a1.46,1.46,0,0,0,.49,1,1.71,1.71,0,0,0,1.12.33,1.65,1.65,0,0,0,1.08-.29,0.89,0.89,0,0,0,.35-0.7,0.64,0.64,0,0,0-.31-0.56,4.57,4.57,0,0,0-1.08-.36,9.86,9.86,0,0,1-1.61-.51,1.54,1.54,0,0,1-.91-1.43,1.6,1.6,0,0,1,.19-0.77,1.71,1.71,0,0,1,.52-0.59,2.17,2.17,0,0,1,.67-0.31,3.19,3.19,0,0,1,.91-0.13,3.6,3.6,0,0,1,1.29.21,1.75,1.75,0,0,1,.82.57,2.23,2.23,0,0,1,.36,1l-1,.14a1.13,1.13,0,0,0-.41-0.75,1.49,1.49,0,0,0-1-.27,1.72,1.72,0,0,0-1,.24,0.7,0.7,0,0,0-.31.56,0.58,0.58,0,0,0,.13.37,0.93,0.93,0,0,0,.4.28l0.93,0.27a12.92,12.92,0,0,1,1.56.49,1.58,1.58,0,0,1,.69.55,1.55,1.55,0,0,1,.25.9,1.77,1.77,0,0,1-.31,1,2,2,0,0,1-.89.72,3.23,3.23,0,0,1-1.31.25,2.92,2.92,0,0,1-1.85-.5A2.34,2.34,0,0,1,56.43,307Z"/><path d="M10.8,323.29v-6.22h0.95V318a2.57,2.57,0,0,1,.67-0.87,1.17,1.17,0,0,1,.68-0.21,2.06,2.06,0,0,1,1.08.34l-0.36,1A1.51,1.51,0,0,0,13,318a1,1,0,0,0-.62.21,1.13,1.13,0,0,0-.39.58,4.11,4.11,0,0,0-.18,1.23v3.26H10.8Z"/><path d="M19.07,321.29l1.09,0.13a2.66,2.66,0,0,1-1,1.48,2.87,2.87,0,0,1-1.78.53,2.85,2.85,0,0,1-2.17-.84,3.29,3.29,0,0,1-.8-2.36,3.44,3.44,0,0,1,.81-2.44,2.74,2.74,0,0,1,2.1-.87,2.66,2.66,0,0,1,2,.85,3.38,3.38,0,0,1,.79,2.39q0,0.09,0,.28H15.55a2.39,2.39,0,0,0,.58,1.57,1.73,1.73,0,0,0,1.3.54,1.61,1.61,0,0,0,1-.3A2,2,0,0,0,19.07,321.29Zm-3.46-1.71h3.47a2.11,2.11,0,0,0-.4-1.18,1.62,1.62,0,0,0-1.31-.61,1.68,1.68,0,0,0-1.22.49A1.92,1.92,0,0,0,15.61,319.58Z"/><path d="M25.55,321l1,0.13a2.69,2.69,0,0,1-.87,1.68,2.53,2.53,0,0,1-1.72.61,2.67,2.67,0,0,1-2.05-.83,3.39,3.39,0,0,1-.78-2.39,4.33,4.33,0,0,1,.33-1.76,2.33,2.33,0,0,1,1-1.13,3,3,0,0,1,1.49-.38,2.58,2.58,0,0,1,1.66.51,2.35,2.35,0,0,1,.83,1.46l-1,.16a1.7,1.7,0,0,0-.52-0.94,1.34,1.34,0,0,0-.9-0.32,1.64,1.64,0,0,0-1.29.57,2.71,2.71,0,0,0-.5,1.81,2.8,2.8,0,0,0,.48,1.82,1.56,1.56,0,0,0,1.25.57,1.48,1.48,0,0,0,1-.38A1.89,1.89,0,0,0,25.55,321Z"/><path d="M31.75,321.29l1.09,0.13a2.66,2.66,0,0,1-1,1.48,3.24,3.24,0,0,1-3.95-.31,3.29,3.29,0,0,1-.8-2.36,3.44,3.44,0,0,1,.81-2.44,2.74,2.74,0,0,1,2.1-.87,2.66,2.66,0,0,1,2,.85,3.38,3.38,0,0,1,.79,2.39q0,0.09,0,.28H28.22A2.39,2.39,0,0,0,28.8,322a1.73,1.73,0,0,0,1.3.54,1.61,1.61,0,0,0,1-.3A2,2,0,0,0,31.75,321.29Zm-3.46-1.71h3.47a2.11,2.11,0,0,0-.4-1.18,1.62,1.62,0,0,0-1.31-.61,1.68,1.68,0,0,0-1.22.49A1.92,1.92,0,0,0,28.28,319.58Z"/><path d="M34.17,315.92V314.7h1.05v1.21H34.17Zm0,7.38v-6.22h1.05v6.22H34.17Z"/><path d="M38.55,323.29l-2.37-6.22H37.3l1.34,3.73q0.22,0.6.4,1.25,0.14-.49.39-1.18l1.38-3.8h1.08l-2.36,6.22h-1Z"/><path d="M47.09,321.29l1.09,0.13a2.66,2.66,0,0,1-1,1.48,3.24,3.24,0,0,1-3.95-.31,3.29,3.29,0,0,1-.8-2.36,3.44,3.44,0,0,1,.81-2.44,2.74,2.74,0,0,1,2.1-.87,2.66,2.66,0,0,1,2,.85,3.38,3.38,0,0,1,.79,2.39q0,0.09,0,.28H43.56a2.39,2.39,0,0,0,.58,1.57,1.73,1.73,0,0,0,1.3.54,1.61,1.61,0,0,0,1-.3A2,2,0,0,0,47.09,321.29Zm-3.46-1.71H47.1a2.11,2.11,0,0,0-.4-1.18,1.62,1.62,0,0,0-1.31-.61,1.68,1.68,0,0,0-1.22.49A1.92,1.92,0,0,0,43.62,319.58Z"/><path d="M53.09,323.29v-5.4H52.15v-0.82h0.93v-0.66a2.9,2.9,0,0,1,.11-0.93,1.35,1.35,0,0,1,.54-0.67,1.93,1.93,0,0,1,1.08-.25,5.16,5.16,0,0,1,1,.11l-0.16.92a3.54,3.54,0,0,0-.62-0.06,0.92,0.92,0,0,0-.68.21,1.11,1.11,0,0,0-.2.77v0.57h1.21v0.82H54.13v5.4h-1Z"/><path d="M60.25,323.29v-0.91a2.28,2.28,0,0,1-2,1.05,2.52,2.52,0,0,1-1-.21,1.69,1.69,0,0,1-.71-0.53,2,2,0,0,1-.33-0.78,5.36,5.36,0,0,1-.06-1v-3.86H57.2v3.45a6.15,6.15,0,0,0,.06,1.11,1.1,1.1,0,0,0,.42.65,1.31,1.31,0,0,0,.8.24,1.74,1.74,0,0,0,.89-0.24,1.35,1.35,0,0,0,.59-0.66,3.32,3.32,0,0,0,.17-1.22v-3.33h1.05v6.22H60.25Z"/><path d="M62.84,323.29v-6.22h0.95V318a2.24,2.24,0,0,1,2-1,2.6,2.6,0,0,1,1,.2,1.63,1.63,0,0,1,.71.53,2,2,0,0,1,.33.78,6,6,0,0,1,.06,1v3.83H66.84v-3.79a2.84,2.84,0,0,0-.12-1,1,1,0,0,0-.44-0.51,1.39,1.39,0,0,0-.74-0.19,1.71,1.71,0,0,0-1.16.43,2.11,2.11,0,0,0-.49,1.62v3.4H62.84Z"/><path d="M73.55,323.29v-0.79a1.94,1.94,0,0,1-1.74.93,2.44,2.44,0,0,1-1.37-.41,2.7,2.7,0,0,1-1-1.15,4,4,0,0,1-.34-1.69,4.42,4.42,0,0,1,.31-1.69,2.45,2.45,0,0,1,.93-1.16,2.49,2.49,0,0,1,1.39-.4,2.08,2.08,0,0,1,1.72.86V314.7h1v8.59h-1Zm-3.33-3.11a2.7,2.7,0,0,0,.5,1.79,1.52,1.52,0,0,0,1.19.59,1.49,1.49,0,0,0,1.17-.57,2.61,2.61,0,0,0,.48-1.73,2.93,2.93,0,0,0-.49-1.87,1.51,1.51,0,0,0-1.21-.6,1.46,1.46,0,0,0-1.17.57A2.83,2.83,0,0,0,70.22,320.19Z"/><path d="M75.77,321.44l1-.16a1.46,1.46,0,0,0,.49,1,1.71,1.71,0,0,0,1.12.33,1.65,1.65,0,0,0,1.08-.3,0.88,0.88,0,0,0,.35-0.69,0.64,0.64,0,0,0-.31-0.56,4.57,4.57,0,0,0-1.08-.36,9.84,9.84,0,0,1-1.61-.51,1.54,1.54,0,0,1-.91-1.43,1.6,1.6,0,0,1,.19-0.77,1.71,1.71,0,0,1,.52-0.59,2.17,2.17,0,0,1,.67-0.31,3.19,3.19,0,0,1,.91-0.13,3.6,3.6,0,0,1,1.29.21,1.75,1.75,0,0,1,.82.57,2.23,2.23,0,0,1,.36,1l-1,.14a1.13,1.13,0,0,0-.41-0.75,1.49,1.49,0,0,0-1-.27,1.72,1.72,0,0,0-1,.24,0.7,0.7,0,0,0-.31.56,0.58,0.58,0,0,0,.13.37,0.93,0.93,0,0,0,.4.28l0.93,0.27A13,13,0,0,1,80,320a1.58,1.58,0,0,1,.69.55,1.55,1.55,0,0,1,.25.9,1.77,1.77,0,0,1-.31,1,2,2,0,0,1-.89.72,3.23,3.23,0,0,1-1.31.25,2.92,2.92,0,0,1-1.85-.5A2.34,2.34,0,0,1,75.77,321.44Z"/><path d="M7.68,56.62V48H9.39l2,6.08q0.28,0.85.41,1.27,0.15-.47.46-1.38l2.06-6h1.53v8.59h-1.1V49.43l-2.5,7.19h-1L8.77,49.3v7.31H7.68Z"/><path d="M21.83,54.61l1.09,0.13a2.66,2.66,0,0,1-1,1.48,2.87,2.87,0,0,1-1.78.53A2.85,2.85,0,0,1,18,55.92a3.29,3.29,0,0,1-.8-2.36A3.44,3.44,0,0,1,18,51.12a2.74,2.74,0,0,1,2.1-.87,2.66,2.66,0,0,1,2,.85A3.38,3.38,0,0,1,23,53.49q0,0.09,0,.28H18.31a2.39,2.39,0,0,0,.58,1.57,1.73,1.73,0,0,0,1.3.54,1.61,1.61,0,0,0,1-.3A2,2,0,0,0,21.83,54.61Zm-3.46-1.71h3.47a2.11,2.11,0,0,0-.4-1.18,1.62,1.62,0,0,0-1.31-.61,1.68,1.68,0,0,0-1.22.49A1.92,1.92,0,0,0,18.37,52.91Z"/><path d="M24.25,56.62V50.39h0.94v0.87A2.22,2.22,0,0,1,26,50.53a2.19,2.19,0,0,1,1.11-.28,2,2,0,0,1,1.13.29,1.54,1.54,0,0,1,.62.8,2.23,2.23,0,0,1,1.92-1.09,1.89,1.89,0,0,1,1.42.51,2.19,2.19,0,0,1,.5,1.58v4.27h-1V52.7a2.88,2.88,0,0,0-.1-0.91,0.88,0.88,0,0,0-.37-0.45,1.16,1.16,0,0,0-.63-0.17,1.47,1.47,0,0,0-1.09.44A1.92,1.92,0,0,0,29,53v3.62H27.95v-4a1.78,1.78,0,0,0-.26-1.05,1,1,0,0,0-.84-0.35,1.53,1.53,0,0,0-.82.23,1.33,1.33,0,0,0-.55.69,3.86,3.86,0,0,0-.17,1.3v3.23H24.25Z"/><path d="M35.22,56.62h-1V48h1.05v3.06A2.09,2.09,0,0,1,37,50.25a2.61,2.61,0,0,1,1.09.23,2.22,2.22,0,0,1,.84.65,3.14,3.14,0,0,1,.52,1,4.17,4.17,0,0,1,.19,1.27,3.55,3.55,0,0,1-.79,2.47,2.47,2.47,0,0,1-1.9.87,2,2,0,0,1-1.73-.92v0.78Zm0-3.16a3.23,3.23,0,0,0,.3,1.62,1.51,1.51,0,0,0,2.54.21,2.73,2.73,0,0,0,.5-1.79,2.78,2.78,0,0,0-.48-1.8,1.47,1.47,0,0,0-1.17-.58,1.52,1.52,0,0,0-1.2.6A2.63,2.63,0,0,0,35.21,53.46Z"/><path d="M45.18,54.61l1.09,0.13a2.66,2.66,0,0,1-1,1.48,3.24,3.24,0,0,1-3.95-.31,3.29,3.29,0,0,1-.8-2.36,3.44,3.44,0,0,1,.81-2.44,2.74,2.74,0,0,1,2.1-.87,2.66,2.66,0,0,1,2,.85,3.38,3.38,0,0,1,.79,2.39q0,0.09,0,.28H41.66a2.39,2.39,0,0,0,.58,1.57,1.73,1.73,0,0,0,1.3.54,1.61,1.61,0,0,0,1-.3A2,2,0,0,0,45.18,54.61Zm-3.46-1.71h3.47a2.11,2.11,0,0,0-.4-1.18,1.62,1.62,0,0,0-1.31-.61,1.68,1.68,0,0,0-1.22.49A1.92,1.92,0,0,0,41.71,52.91Z"/><path d="M47.58,56.62V50.39h0.95v0.94a2.57,2.57,0,0,1,.67-0.87,1.17,1.17,0,0,1,.68-0.21,2.06,2.06,0,0,1,1.08.34l-0.36,1a1.51,1.51,0,0,0-.77-0.23,1,1,0,0,0-.62.21,1.12,1.12,0,0,0-.39.58,4.11,4.11,0,0,0-.18,1.23v3.26H47.58Z"/><path d="M51.17,54.76l1-.16a1.46,1.46,0,0,0,.49,1,1.71,1.71,0,0,0,1.12.33,1.65,1.65,0,0,0,1.08-.29,0.89,0.89,0,0,0,.35-0.7,0.64,0.64,0,0,0-.31-0.56A4.57,4.57,0,0,0,53.86,54a9.86,9.86,0,0,1-1.61-.51A1.54,1.54,0,0,1,51.34,52a1.6,1.6,0,0,1,.19-0.77,1.71,1.71,0,0,1,.52-0.59,2.17,2.17,0,0,1,.67-0.31,3.19,3.19,0,0,1,.91-0.13,3.6,3.6,0,0,1,1.29.21,1.75,1.75,0,0,1,.82.57,2.23,2.23,0,0,1,.36,1l-1,.14a1.13,1.13,0,0,0-.41-0.75,1.49,1.49,0,0,0-1-.27,1.72,1.72,0,0,0-1,.24,0.7,0.7,0,0,0-.31.56,0.58,0.58,0,0,0,.13.37,0.93,0.93,0,0,0,.4.28l0.93,0.27a12.92,12.92,0,0,1,1.56.49,1.58,1.58,0,0,1,.69.55,1.55,1.55,0,0,1,.25.9,1.77,1.77,0,0,1-.31,1,2,2,0,0,1-.89.72,3.23,3.23,0,0,1-1.31.25,2.92,2.92,0,0,1-1.85-.5A2.34,2.34,0,0,1,51.17,54.76Z"/><path d="M7.57,71V64.79H8.52v0.94a2.57,2.57,0,0,1,.67-0.87,1.17,1.17,0,0,1,.68-0.21,2.06,2.06,0,0,1,1.08.34l-0.36,1a1.51,1.51,0,0,0-.77-0.23,1,1,0,0,0-.62.21,1.13,1.13,0,0,0-.39.58,4.11,4.11,0,0,0-.18,1.23V71H7.57Z"/><path d="M15.83,69l1.09,0.13a2.66,2.66,0,0,1-1,1.48,2.87,2.87,0,0,1-1.78.53A2.85,2.85,0,0,1,12,70.32a3.29,3.29,0,0,1-.8-2.36A3.44,3.44,0,0,1,12,65.52a2.74,2.74,0,0,1,2.1-.87,2.66,2.66,0,0,1,2,.85A3.38,3.38,0,0,1,17,67.89q0,0.09,0,.28H12.31a2.39,2.39,0,0,0,.58,1.57,1.73,1.73,0,0,0,1.3.54,1.61,1.61,0,0,0,1-.3A2,2,0,0,0,15.83,69Zm-3.46-1.71h3.47a2.11,2.11,0,0,0-.4-1.18,1.62,1.62,0,0,0-1.31-.61,1.68,1.68,0,0,0-1.22.49A1.92,1.92,0,0,0,12.37,67.31Z"/><path d="M22.31,68.74l1,0.13a2.69,2.69,0,0,1-.87,1.68,2.53,2.53,0,0,1-1.72.61,2.67,2.67,0,0,1-2.05-.83,3.39,3.39,0,0,1-.78-2.39,4.33,4.33,0,0,1,.33-1.76,2.33,2.33,0,0,1,1-1.13,3,3,0,0,1,1.49-.38,2.58,2.58,0,0,1,1.66.51,2.35,2.35,0,0,1,.83,1.46l-1,.16a1.7,1.7,0,0,0-.52-0.94,1.34,1.34,0,0,0-.9-0.32,1.64,1.64,0,0,0-1.29.57A2.71,2.71,0,0,0,19,67.9a2.8,2.8,0,0,0,.48,1.82,1.56,1.56,0,0,0,1.25.57,1.48,1.48,0,0,0,1-.38A1.89,1.89,0,0,0,22.31,68.74Z"/><path d="M28.51,69l1.09,0.13a2.66,2.66,0,0,1-1,1.48,3.24,3.24,0,0,1-3.95-.31A3.29,3.29,0,0,1,23.9,68a3.44,3.44,0,0,1,.81-2.44,2.74,2.74,0,0,1,2.1-.87,2.66,2.66,0,0,1,2,.85,3.38,3.38,0,0,1,.79,2.39q0,0.09,0,.28H25a2.39,2.39,0,0,0,.58,1.57,1.73,1.73,0,0,0,1.3.54,1.61,1.61,0,0,0,1-.3A2,2,0,0,0,28.51,69ZM25,67.31h3.47a2.11,2.11,0,0,0-.4-1.18,1.62,1.62,0,0,0-1.31-.61,1.68,1.68,0,0,0-1.22.49A1.92,1.92,0,0,0,25,67.31Z"/><path d="M30.93,63.64V62.43H32v1.21H30.93Zm0,7.38V64.79H32V71H30.93Z"/><path d="M35.32,71l-2.37-6.22h1.11l1.34,3.73q0.22,0.6.4,1.25,0.14-.49.39-1.18l1.38-3.8h1.08L36.3,71h-1Z"/><path d="M43.85,69l1.09,0.13a2.66,2.66,0,0,1-1,1.48A3.24,3.24,0,0,1,40,70.32a3.29,3.29,0,0,1-.8-2.36A3.44,3.44,0,0,1,40,65.52a2.74,2.74,0,0,1,2.1-.87,2.66,2.66,0,0,1,2,.85A3.38,3.38,0,0,1,45,67.89q0,0.09,0,.28H40.33a2.39,2.39,0,0,0,.58,1.57,1.73,1.73,0,0,0,1.3.54,1.61,1.61,0,0,0,1-.3A2,2,0,0,0,43.85,69Zm-3.46-1.71h3.47a2.11,2.11,0,0,0-.4-1.18,1.62,1.62,0,0,0-1.31-.61,1.68,1.68,0,0,0-1.22.49A1.92,1.92,0,0,0,40.38,67.31Z"/><path d="M7.83,85.42V80H6.9V79.19H7.83V78.53a2.9,2.9,0,0,1,.11-0.93,1.35,1.35,0,0,1,.54-0.67,1.93,1.93,0,0,1,1.08-.25,5.16,5.16,0,0,1,1,.11l-0.16.92a3.54,3.54,0,0,0-.62-0.06,0.92,0.92,0,0,0-.68.21,1.11,1.11,0,0,0-.2.77v0.57h1.21V80H8.88v5.4h-1Z"/><path d="M15,85.42V84.5a2.28,2.28,0,0,1-2,1.05,2.52,2.52,0,0,1-1-.21,1.69,1.69,0,0,1-.71-0.53A2,2,0,0,1,11,84a5.36,5.36,0,0,1-.06-1V79.19h1.05v3.45A6.15,6.15,0,0,0,12,83.76a1.1,1.1,0,0,0,.42.65,1.31,1.31,0,0,0,.8.24,1.74,1.74,0,0,0,.89-0.24,1.35,1.35,0,0,0,.59-0.66,3.32,3.32,0,0,0,.17-1.22V79.19h1.05v6.22H15Z"/><path d="M17.59,85.42V79.19h0.95v0.88a2.24,2.24,0,0,1,2-1,2.6,2.6,0,0,1,1,.2,1.63,1.63,0,0,1,.71.53,2,2,0,0,1,.33.78,6,6,0,0,1,.06,1v3.83H21.59V81.63a2.84,2.84,0,0,0-.12-1A1,1,0,0,0,21,80.16,1.39,1.39,0,0,0,20.29,80a1.71,1.71,0,0,0-1.16.43A2.11,2.11,0,0,0,18.64,82v3.4H17.59Z"/><path d="M28.3,85.42V84.63a1.94,1.94,0,0,1-1.74.93,2.44,2.44,0,0,1-1.37-.41,2.7,2.7,0,0,1-1-1.15,4,4,0,0,1-.34-1.69,4.42,4.42,0,0,1,.31-1.69,2.45,2.45,0,0,1,.93-1.16,2.49,2.49,0,0,1,1.39-.4,2.08,2.08,0,0,1,1.72.86V76.83h1v8.59h-1ZM25,82.31a2.7,2.7,0,0,0,.5,1.79,1.52,1.52,0,0,0,1.19.59,1.49,1.49,0,0,0,1.17-.57,2.61,2.61,0,0,0,.48-1.73,2.93,2.93,0,0,0-.49-1.87,1.51,1.51,0,0,0-1.21-.6,1.46,1.46,0,0,0-1.17.57A2.83,2.83,0,0,0,25,82.31Z"/><path d="M30.51,83.56l1-.16a1.46,1.46,0,0,0,.49,1,1.71,1.71,0,0,0,1.12.33,1.65,1.65,0,0,0,1.08-.3,0.88,0.88,0,0,0,.35-0.69,0.64,0.64,0,0,0-.31-0.56,4.57,4.57,0,0,0-1.08-.36,9.84,9.84,0,0,1-1.61-.51,1.54,1.54,0,0,1-.91-1.43,1.6,1.6,0,0,1,.19-0.77,1.71,1.71,0,0,1,.52-0.59,2.17,2.17,0,0,1,.67-0.31A3.19,3.19,0,0,1,33,79.05a3.6,3.6,0,0,1,1.29.21,1.75,1.75,0,0,1,.82.57,2.23,2.23,0,0,1,.36,1l-1,.14A1.13,1.13,0,0,0,34,80.19a1.49,1.49,0,0,0-1-.27,1.72,1.72,0,0,0-1,.24,0.7,0.7,0,0,0-.31.56,0.58,0.58,0,0,0,.13.37,0.93,0.93,0,0,0,.4.28l0.93,0.27a13,13,0,0,1,1.56.49,1.58,1.58,0,0,1,.69.55,1.55,1.55,0,0,1,.25.9,1.77,1.77,0,0,1-.31,1,2,2,0,0,1-.89.72,3.23,3.23,0,0,1-1.31.25,2.92,2.92,0,0,1-1.85-.5A2.34,2.34,0,0,1,30.51,83.56Z"/></svg>